<?xml version="1.0" encoding="utf-8"?>
<!-- Generator: Adobe Illustrator 26.0.3, SVG Export Plug-In . SVG Version: 6.00 Build 0)  -->
<svg version="1.1" xmlns="http://www.w3.org/2000/svg" xmlns:xlink="http://www.w3.org/1999/xlink" x="0px" y="0px"
	 viewBox="0 0 5026 2694" style="enable-background:new 0 0 5026 2694;" xml:space="preserve">
<style type="text/css">
	.st0{fill:#F9EBB2;}
	.st1{fill:#FF5719;}
	.st2{opacity:0.2;fill:#231F20;enable-background:new    ;}
	.st3{fill:#FB9D77;}
	.st4{fill:#FFFFFF;stroke:#000000;stroke-miterlimit:10;}
	.st5{fill:#FED700;stroke:#000000;stroke-width:20;stroke-miterlimit:10;}
	.st6{fill:none;stroke:#FF5719;stroke-width:20;stroke-miterlimit:10;}
	.st7{stroke:#000000;stroke-width:19;stroke-miterlimit:10;}
	.st8{fill:#FED700;stroke:#000000;stroke-width:19;stroke-miterlimit:10;}
	.st9{stroke:#000000;stroke-width:20;stroke-miterlimit:10;}
	.st10{fill:none;stroke:#000000;stroke-miterlimit:10;}
	.st11{fill:#E4AA6C;stroke:#000000;stroke-width:0.5;stroke-miterlimit:10;}
	.st12{stroke:#000000;stroke-width:0.5;stroke-miterlimit:10;}
	.st13{fill:#EBA65F;stroke:#000000;stroke-width:0.5;stroke-miterlimit:10;}
	.st14{fill:#F6FBCE;stroke:#000000;stroke-width:0.5;stroke-miterlimit:10;}
	.st15{fill:#F7E5BE;stroke:#000000;stroke-width:0.5;stroke-miterlimit:10;}
	.st16{fill:#FAFAF9;stroke:#000000;stroke-width:0.5;stroke-miterlimit:10;}
	.st17{fill:#EB9B82;stroke:#000000;stroke-width:0.5;stroke-miterlimit:10;}
	.st18{fill:#552449;stroke:#000000;stroke-width:0.5;stroke-miterlimit:10;}
	.st19{fill:#EB9B82;stroke:#020100;stroke-width:0.5;stroke-miterlimit:10;}
	.st20{fill:#407F40;stroke:#407F40;stroke-width:0.5;stroke-miterlimit:10;}
	.st21{fill:#020303;stroke:#020303;stroke-width:0.5;stroke-miterlimit:10;}
	.st22{fill:#3F0C0B;stroke:#000000;stroke-width:0.5;stroke-miterlimit:10;}
	.st23{fill:#F9F9F9;stroke:#000000;stroke-width:0.5;stroke-miterlimit:10;}
	.st24{fill:#AF584F;stroke:#000000;stroke-width:0.5;stroke-miterlimit:10;}
	.st25{fill:#D68080;stroke:#000000;stroke-width:0.5;stroke-miterlimit:10;}
	.st26{fill:none;stroke:#020303;stroke-width:0.75;stroke-miterlimit:10;}
	.st27{fill:#C88E50;stroke:#000000;stroke-width:0.5;stroke-miterlimit:10;}
	.st28{fill:#FAFAF9;}
	.st29{fill:#986B46;stroke:#000000;stroke-width:0.5;stroke-miterlimit:10;}
	.st30{stroke:#FFFFFF;stroke-width:0.5;stroke-miterlimit:10;}
	.st31{fill:#FCE9C2;stroke:#000000;stroke-width:0.5;stroke-miterlimit:10;}
	.st32{fill:none;stroke:#FFFFFF;stroke-width:0.5;stroke-miterlimit:10;}
	.st33{fill:none;stroke:#000000;stroke-width:0.5;stroke-miterlimit:10;}
	.st34{fill:none;stroke:#020303;stroke-width:0.5;stroke-miterlimit:10;}
	.st35{fill:#070105;stroke:#000000;stroke-width:0.5;stroke-miterlimit:10;}
	.st36{fill:none;stroke:#FFFFFF;stroke-width:0.25;stroke-miterlimit:10;}
	.st37{fill:#FFFFFF;stroke:#F2F2F2;stroke-miterlimit:10;}
	.st38{fill:#070105;stroke:#E6E6E6;stroke-width:0.5;stroke-miterlimit:10;}
	.st39{fill:#FFFFFF;stroke:#000000;stroke-width:0.5;stroke-miterlimit:10;}
	.st40{fill:#FFFFFF;stroke:#000000;stroke-width:3;stroke-miterlimit:10;}
	.st41{fill:#FB9D77;stroke:#000000;stroke-width:3;stroke-miterlimit:10;}
	.st42{fill:none;stroke:#000000;stroke-width:3;stroke-miterlimit:10;}
	.st43{fill:#394240;stroke:#394240;stroke-width:3;stroke-miterlimit:10;}
	.st44{fill:#AAAAAA;}
	.st45{fill:#867FFF;}
	.st46{fill:#CCCCCC;}
	.st47{fill:#B4CCB9;}
	.st48{fill:#FFF6C9;}
	.st49{fill:#FFD274;}
	.st50{fill:#F5FF74;}
	.st51{fill:#EFDC81;}
	.st52{fill:#F4EFEF;}
	.st53{fill:#33A5D2;}
</style>
<g id="OFFICE">
</g>
<g id="BUNNY">
	<g>
		<path class="st0" d="M1270.8,2547.4l-282.2,86c-13.6,4.1-27.9-3.5-32-17.1c-4.1-13.6,3.5-27.9,17.1-32l282.2-86L1270.8,2547.4z"/>
		<g>
			<path class="st1" d="M855.7,2285.1l92.6,303.9c4.7-7.8,12.2-14,21.7-16.9l12.3-3.7l-93.4-306.7l-24.5,7.5
				C857.4,2271.1,853.6,2278.3,855.7,2285.1z"/>
			<path class="st1" d="M1158.7,2179.4L901,2257.8l93.4,306.7l257.6-78.5l12.3-3.7l-3.7-12.3l-86-282.2
				C1172.6,2181.1,1165.4,2177.3,1158.7,2179.4z"/>
		</g>
		<g>
			<path d="M1276.6,2478.6l-89.7-294.4c-4.1-13.6-18.4-21.2-32-17.1l-294.4,89.7c-13.6,4.1-21.2,18.4-17.1,32L944.3,2620
				c6.2,20.3,27.7,31.8,48,25.6l300.6-91.6c3.4-1,5.3-4.6,4.3-8c-1-3.4-4.6-5.3-8-4.3l-6.1,1.9l-15-49.1
				C1274.9,2492.5,1278.7,2485.4,1276.6,2478.6z M855.7,2285.1c-2.1-6.8,1.8-13.9,8.5-16l24.5-7.5l93.4,306.7l-12.3,3.7
				c-9.4,2.9-16.9,9.1-21.7,16.9L855.7,2285.1z M1270.8,2547.4l-282.2,86c-13.6,4.1-27.9-3.5-32-17.1c-4.1-13.6,3.5-27.9,17.1-32
				l282.2-86L1270.8,2547.4z M1252.1,2486.1l-257.6,78.5L901,2257.8l257.6-78.5c6.8-2.1,13.9,1.8,16,8.5l86,282.2l3.7,12.3
				L1252.1,2486.1z"/>
			<path d="M1123.8,2350.9l-122.7,37.4c-3.4,1-5.3,4.6-4.3,8c1,3.4,4.6,5.3,8,4.3l122.7-37.4c3.4-1,5.3-4.6,4.3-8
				C1130.7,2351.7,1127.2,2349.8,1123.8,2350.9z"/>
			<path d="M1149.4,2302.9l-159.5,48.6c-3.4,1-5.3,4.6-4.3,8c1,3.4,4.6,5.3,8,4.3l159.5-48.6c3.4-1,5.3-4.6,4.3-8
				C1156.3,2303.7,1152.8,2301.8,1149.4,2302.9z"/>
			<path d="M982.4,2326.9l73.6-22.4c3.4-1,5.3-4.6,4.3-8c-1-3.4-4.6-5.3-8-4.3l-73.6,22.4c-3.4,1-5.3,4.6-4.3,8
				C975.4,2326,979,2327.9,982.4,2326.9z"/>
		</g>
		<path class="st2" d="M855.7,2285.1l92.6,303.9c4.7-7.8,12.2-14,21.7-16.9l12.3-3.7l-93.4-306.7l-24.5,7.5
			C857.4,2271.1,853.6,2278.3,855.7,2285.1z"/>
	</g>
	<g>
		<path class="st0" d="M4012.6,1573.2l-160.1-80.5c-7.7-3.9-10.8-13.2-6.9-20.9c3.9-7.7,13.2-10.8,20.9-6.9l160.1,80.5
			L4012.6,1573.2z"/>
		<g>
			<path class="st1" d="M3940.1,1283.8l-86.7,172.4c5.4-1.5,11.3-1,16.6,1.7l7,3.5l87.5-174l-13.9-7
				C3946.7,1278.4,3942,1280,3940.1,1283.8z"/>
			<path class="st1" d="M4117.6,1364.4l-146.2-73.5l-87.5,174l146.2,73.5l7,3.5l3.5-7l80.5-160.1
				C4123,1371,4121.5,1366.3,4117.6,1364.4z"/>
		</g>
		<g>
			<path d="M4044,1545.4l84-167.1c3.9-7.7,0.8-17.1-6.9-20.9l-167.1-84c-7.7-3.9-17.1-0.8-20.9,6.9l-94.5,187.9
				c-5.8,11.5-1.2,25.6,10.4,31.4l170.5,85.8c1.9,1,4.3,0.2,5.2-1.7c1-1.9,0.2-4.3-1.7-5.2l-3.5-1.8l14-27.8
				C4037.4,1550.8,4042.1,1549.3,4044,1545.4z M3940.1,1283.8c1.9-3.8,6.6-5.4,10.5-3.5l13.9,7l-87.5,174l-7-3.5
				c-5.4-2.7-11.2-3.1-16.6-1.7L3940.1,1283.8z M4012.6,1573.2l-160.1-80.5c-7.7-3.9-10.8-13.2-6.9-20.9c3.9-7.7,13.2-10.8,20.9-6.9
				l160.1,80.5L4012.6,1573.2z M4030.1,1538.4l-146.2-73.5l87.5-174l146.2,73.5c3.8,1.9,5.4,6.6,3.5,10.5l-80.5,160.1l-3.5,7
				L4030.1,1538.4z"/>
			<path d="M4030.4,1425.2l-69.6-35c-1.9-1-4.3-0.2-5.2,1.7s-0.2,4.3,1.7,5.2l69.6,35c1.9,1,4.3,0.2,5.2-1.7
				S4032.3,1426.1,4030.4,1425.2z"/>
			<path d="M4061.7,1414.8l-90.5-45.5c-1.9-1-4.3-0.2-5.2,1.7s-0.2,4.3,1.7,5.2l90.5,45.5c1.9,1,4.3,0.2,5.2-1.7
				C4064.4,1418.1,4063.7,1415.8,4061.7,1414.8z"/>
			<path d="M3978.2,1355.4l41.8,21c1.9,1,4.3,0.2,5.2-1.7c1-1.9,0.2-4.3-1.7-5.2l-41.8-21c-1.9-1-4.3-0.2-5.2,1.7
				C3975.5,1352.1,3976.3,1354.4,3978.2,1355.4z"/>
		</g>
		<path class="st2" d="M3940.1,1283.8l-86.7,172.4c5.4-1.5,11.3-1,16.6,1.7l7,3.5l87.5-174l-13.9-7
			C3946.7,1278.4,3942,1280,3940.1,1283.8z"/>
	</g>
	<g>
		<path class="st0" d="M278.6,1902.9l-149.5,45.6c-7.2,2.2-14.8-1.9-17-9s1.9-14.8,9-17l149.5-45.6L278.6,1902.9z"/>
		<g>
			<path class="st3" d="M58.6,1763.9l49.1,161c2.5-4.1,6.5-7.4,11.5-9l6.5-2l-49.5-162.5l-13,4C59.6,1756.5,57.5,1760.3,58.6,1763.9
				z"/>
			<path class="st3" d="M219.2,1707.8l-136.5,41.6l49.5,162.5l136.5-41.6l6.5-2l-2-6.5l-45.6-149.5
				C226.6,1708.8,222.8,1706.7,219.2,1707.8z"/>
		</g>
		<g>
			<path d="M281.7,1866.4l-47.5-156c-2.2-7.2-9.8-11.2-17-9l-156,47.5c-7.2,2.2-11.2,9.8-9,17l53.5,175.5
				c3.3,10.8,14.7,16.8,25.4,13.6l159.3-48.5c1.8-0.5,2.8-2.4,2.3-4.2c-0.5-1.8-2.4-2.8-4.2-2.3l-3.3,1l-7.9-26
				C280.8,1873.8,282.8,1870,281.7,1866.4z M58.6,1763.9c-1.1-3.6,0.9-7.4,4.5-8.5l13-4l49.5,162.5l-6.5,2c-5,1.5-9,4.8-11.5,9
				L58.6,1763.9z M278.6,1902.9l-149.5,45.6c-7.2,2.2-14.8-1.9-17-9s1.9-14.8,9-17l149.5-45.6L278.6,1902.9z M268.7,1870.4
				l-136.5,41.6l-49.5-162.5l136.5-41.6c3.6-1.1,7.4,0.9,8.5,4.5l45.6,149.5l2,6.5L268.7,1870.4z"/>
			<path d="M200.7,1798.7l-65,19.8c-1.8,0.5-2.8,2.4-2.3,4.2c0.5,1.8,2.4,2.8,4.2,2.3l65-19.8c1.8-0.5,2.8-2.4,2.3-4.2
				S202.5,1798.2,200.7,1798.7z"/>
			<path d="M214.2,1773.3l-84.5,25.7c-1.8,0.5-2.8,2.4-2.3,4.2c0.5,1.8,2.4,2.8,4.2,2.3l84.5-25.7c1.8-0.5,2.8-2.4,2.3-4.2
				C217.9,1773.7,216,1772.7,214.2,1773.3z"/>
			<path d="M125.8,1786l39-11.9c1.8-0.5,2.8-2.4,2.3-4.2c-0.5-1.8-2.4-2.8-4.2-2.3l-39,11.9c-1.8,0.5-2.8,2.4-2.3,4.2
				C122.1,1785.6,124,1786.6,125.8,1786z"/>
		</g>
		<path class="st2" d="M58.6,1763.9l49.1,161c2.5-4.1,6.5-7.4,11.5-9l6.5-2l-49.5-162.5l-13,4C59.6,1756.5,57.5,1760.3,58.6,1763.9z
			"/>
	</g>
	<path class="st4" d="M125.7,917c0-2.4,0.1-4.8-0.3-7.1c-0.3-1.8-0.9-3.5-1.5-5.2c-1-3-2.1-5.9-3.2-8.8c-0.7-1.9-1.4-3.8-2.3-5.5
		c-1-1.9-2.3-3.9-1.6-6c0.4-1.3,1.5-2.2,2.8-2.2c1.7,0,3,1.4,4.1,2.8c1.7,2.1,3.3,4.4,4.5,6.8c1.6,3.1,2.7,6.5,3.7,9.9
		c2.2,6.9,4.3,14.4,2.5,21.5c-0.7,2.7-3.9,8.9-7.2,6.7C124.2,927.8,125.7,920,125.7,917z"/>
	<g>
		<path d="M2796.2,1399.7c-5.3-35.7-10.4-77.1-15.6-126.6l-47.2-448.6c-5.8-54.7-54.9-94.4-109.6-88.7l-15.2,1.6
			c-54.7,5.8-94.4,54.9-88.7,109.6l38.9,369.2c1.8,17.4,0.4,35.3-3.9,50.6c-14,44.1-56.7,98.2-131,106.1
			c-37.5,3.9-125.3,13.2-144.5-169.6L2245,875.9c-5.8-54.7-54.9-94.4-109.6-88.7l-15.2,1.6c-54.7,5.8-94.4,54.9-88.7,109.6l36.7,349
			c12.9,122.2,55.1,210.9,125.4,263.8c69.8,52.5,150.2,56.6,205.4,50.8c101.7-10.7,168.2-56.6,210-101.9
			c18.4,35.5,57.3,57.7,99,53.3c27.3-2.9,51.6-16.4,68.4-38.1C2793.2,1453.6,2800.2,1426.8,2796.2,1399.7z"/>
		<path class="st5" d="M2745.2,1371.1c-5.3-35.7-10.4-77.1-15.6-126.6l-47.2-448.6c-5.8-54.7-54.9-94.4-109.6-88.7l-15.2,1.6
			c-54.7,5.8-94.4,54.9-88.7,109.6l38.9,369.2c1.8,17.4,0.4,35.3-3.9,50.6c-14,44.1-56.7,98.2-131,106.1
			c-37.5,3.9-125.3,13.2-144.5-169.6L2194,847.2c-5.8-54.7-54.9-94.4-109.6-88.7l-15.2,1.6c-54.7,5.8-94.4,54.9-88.7,109.6l36.7,349
			c12.9,122.2,55.1,210.9,125.4,263.8c69.8,52.5,150.2,56.6,205.4,50.8c101.7-10.7,168.2-56.6,210-101.9
			c18.4,35.5,57.3,57.7,99,53.3c27.3-2.9,51.6-16.4,68.4-38.1C2742.2,1425,2749.2,1398.1,2745.2,1371.1z"/>
		<path class="st6" d="M2512.2,1316.5c-47.8,65.7-132.3,92.1-205.5,65.6c-64.9-23.4-110.5-84.7-115.9-155.7"/>
		<path class="st6" d="M2638,811.4c0.6,5.7,41.9,397.6,41.9,398.2c2.3,21.7,3.4,32.6,3.4,32.6c2.3,22.4,2.8,28.3,4.2,39.6
			c1.6,13.7,3.1,23.8,4.6,34.3c2.5,17.3,6.1,40.5,11.2,68.3"/>
	</g>
	<g>
		<path d="M3396.6,708.5c-73.3-52.9-152.6-53.6-193.3-49.3c-60.2,6.3-116,28.4-161.3,63.9c-12.9,10.1-24.9,21.2-35.9,33.3
			c-18-33.6-55.1-54.6-94.9-50.4l-0.4,0c-26.3,2.8-49.7,15.8-65.9,36.7c-16.2,21-23,47-19.1,73.2c5.5,36.8,10.5,77.6,15.9,128.5
			l47.8,453.5c5.6,52.8,53,91.2,105.7,85.6l14.8-1.6c52.8-5.6,91.2-53,85.6-105.7l-38.3-364c-1.9-17.8-1.3-35.1,1.5-46.3l0.1-0.5
			l0.2-1l0.1-0.5c10.2-52.4,51.8-108.5,121.8-115.9c81-8.5,128.1,43.3,139.7,154l36.5,346.7c5.6,52.8,53,91.2,105.7,85.6l14.8-1.6
			c52.8-5.6,91.2-53,85.6-105.7l-38-361.1C3512.7,847.7,3469.4,761.1,3396.6,708.5z"/>
		<path class="st5" d="M3345.6,679.9c-73.3-52.9-152.6-53.6-193.3-49.3c-60.2,6.3-116,28.4-161.3,63.9
			c-12.9,10.1-24.9,21.2-35.9,33.3c-18-33.6-55.1-54.6-94.9-50.4l-0.4,0c-26.3,2.8-49.7,15.8-65.9,36.7c-16.2,21-23,47-19.1,73.2
			c5.5,36.8,10.5,77.6,15.9,128.5l47.8,453.5c5.6,52.8,53,91.2,105.7,85.6l14.8-1.6c52.8-5.6,91.2-53,85.6-105.7l-38.3-364
			c-1.9-17.8-1.3-35.1,1.5-46.3l0.1-0.5l0.2-1l0.1-0.5c10.2-52.4,51.8-108.5,121.8-115.9c81-8.5,128.1,43.3,139.7,154l36.5,346.7
			c5.6,52.8,53,91.2,105.7,85.6l14.8-1.6c52.8-5.6,91.2-53,85.6-105.7l-38-361.1C3461.7,819.1,3418.4,732.5,3345.6,679.9z"/>
		<path class="st6" d="M3053.8,705.6c17.7-10.4,48.1-25.4,88.7-31.3c23.7-3.5,69.6-6.6,121.6,13.1c13.9,5.3,57.9,23.5,96.9,67.8
			c22.8,25.9,35.9,51.7,43.3,69.4"/>
		<line class="st6" x1="2965.3" y1="1042.9" x2="2999.2" y2="1364.5"/>
	</g>
	<g>
		<path d="M4965.5,548c-19.4-24.8-49.6-37.7-80.9-34.4l-36.7,3.9c-36.1,3.8-66.4,28.7-77.1,63.4l-98.7,321c-2,6.4-3.9,12.8-5.8,19.3
			c-3.7-8.1-7.4-16-11.1-23.8l-0.3-0.7l-143.4-284.9c-16.8-33.4-53.2-53.3-90.4-49.4c-29.6,3.1-55.8,20.6-70,46.7
			c-14.3,26.1-14.8,57.6-1.4,84.2l218,432.4c3.1,6.7,4.9,10.9,5.8,13.5c-1.2,3-2.8,6.7-3.5,8.3c-24.5,56.2-64,83.9-75.5,91l-0.3,0.2
			l-1,0.7c-11.4,7.7-24.1,14.2-37.9,19.4c-46.2,17.2-70,67.2-54.2,113.9l2.5,7.4c13.7,40.4,52.8,65.5,95.3,61.1
			c2.7-0.3,5.3-0.7,8-1.2c37.9-7.4,75.3-23,108.1-45c45.8-30,84-73.9,120.3-138c32.3-57.1,65.3-133.8,106.9-248.4l136.9-373.4
			C4990,605.3,4984.9,572.8,4965.5,548z"/>
		<path class="st5" d="M4914.5,519.3c-19.4-24.8-49.6-37.7-80.9-34.4l-36.7,3.9c-36.1,3.8-66.4,28.7-77.1,63.4l-98.7,321
			c-2,6.4-3.9,12.8-5.8,19.3c-3.7-8.1-7.4-16-11.1-23.8l-0.3-0.7l-143.4-284.9c-16.8-33.4-53.2-53.3-90.4-49.4
			c-29.6,3.1-55.8,20.6-70,46.7c-14.3,26.1-14.8,57.6-1.4,84.2l218,432.4c3.1,6.7,4.9,10.9,5.8,13.5c-1.2,3-2.8,6.7-3.5,8.3
			c-24.5,56.2-64,83.9-75.5,91l-0.3,0.2l-1,0.7c-11.4,7.7-24.1,14.2-37.9,19.4c-46.2,17.2-70,67.2-54.2,113.9l2.5,7.4
			c13.7,40.4,52.8,65.5,95.3,61.1c2.7-0.3,5.3-0.7,8-1.2c37.9-7.4,75.3-23,108.1-45c45.7-30,84-73.9,120.3-138
			c32.3-57.1,65.3-133.8,106.9-248.4l136.9-373.4C4939,576.6,4933.9,544.2,4914.5,519.3z"/>
		<line class="st6" x1="4423.9" y1="605.9" x2="4602.7" y2="960.3"/>
		<line class="st6" x1="4889.6" y1="579.6" x2="4743.1" y2="989.9"/>
	</g>
	<g>
		<path class="st7" d="M1960.7,1245.2c-16-152.3-138.5-221.4-239.1-236.1c-0.9-0.1-1.7-0.9-1.8-1.8c-0.1-0.9,0.4-1.7,1.2-2.1
			c104-51.4,160.3-145.3,149.9-244.4c-8.5-81.2-47.2-139-105.2-173.2c-70-45.3-158.4-59.2-292-45.1c-67.5,7.1-133.6,18.9-186.7,31.8
			c-31.8,7.7-52.8,37.9-49.4,70.4l95,901.8c3.6,33.8,32.4,59.3,66.4,58.6c40.2-0.9,90.1-3.6,148.4-9.8
			c168.9-17.8,282.4-60.7,347.6-134.1C1941.9,1405.1,1970.1,1334,1960.7,1245.2z M1459.5,834.9l-7.1-67.6
			c-4.2-40.3,24.9-76.4,65.2-80.7c0.4,0,0.8-0.1,1.1-0.1c84.6-8.9,145.4,14.7,153.3,90.5c6.6,62.3-40.5,113.8-128.9,123.1l-2.9,0.3
			C1499.9,904.5,1463.7,875.2,1459.5,834.9z M1595.6,1398.3l-2.9,0.3c-40.4,4.2-76.5-25-80.8-65.4l-7.1-67.6
			c-4.2-40.3,24.9-76.4,65.2-80.7c0.4,0,0.8-0.1,1.1-0.1c84.6-8.9,145.4,14.7,153.3,90.5C1731,1337.5,1684,1389,1595.6,1398.3z"/>
		<path class="st8" d="M1939.7,1214.2c-16-152.3-138.5-221.4-239.1-236.1c-0.9-0.1-1.7-0.9-1.8-1.8c-0.1-0.9,0.4-1.7,1.2-2.1
			c104-51.4,160.3-145.3,149.9-244.4c-8.5-81.2-47.2-139-105.2-173.2c-70-45.3-158.4-59.2-292-45.1c-67.5,7.1-133.6,18.9-186.7,31.8
			c-31.8,7.7-52.8,37.9-49.4,70.4l95,901.8c3.6,33.8,32.4,59.3,66.4,58.6c40.2-0.9,90.1-3.6,148.4-9.8
			c168.9-17.8,282.4-60.7,347.6-134.1C1920.9,1374.1,1949.1,1303,1939.7,1214.2z M1438.5,803.9l-7.1-67.6
			c-4.2-40.3,24.9-76.4,65.2-80.7c0.4,0,0.8-0.1,1.1-0.1c84.6-8.9,145.4,14.7,153.3,90.5c6.6,62.3-40.5,113.8-128.9,123.1l-2.9,0.3
			C1478.9,873.5,1442.7,844.2,1438.5,803.9z M1574.6,1367.3l-2.9,0.3c-40.4,4.2-76.5-25-80.8-65.4l-7.1-67.6
			c-4.2-40.3,24.9-76.4,65.2-80.7c0.4,0,0.8-0.1,1.1-0.1c84.6-8.9,145.4,14.7,153.3,90.5C1710,1306.5,1663,1358,1574.6,1367.3z"/>
		<path class="st6" d="M1405.2,659.3c-6.7,11-14.7,28-14.8,48.9c0,5,0.4,6.9,1.9,18.5c0,0,3.4,32.6,10.3,97.6
			c0.8,7.5,0.2,11.9,1.9,18.5c4.7,17.2,16.7,28.9,25.8,35.9"/>
		<path class="st6" d="M1784.2,1049.3c10.3,5.8,99,58,114.3,167.3c16,114.3-62.2,190.8-69.8,198"/>
		<path class="st6" d="M1696.7,578.6c4.9,2.1,96,43.2,110.1,143.7c9.2,65.7-18,131.5-70.9,172.1"/>
		<path class="st6" d="M1457.9,1159.6c-6.7,11-14.7,28-14.8,48.9c0,5,0.4,6.9,1.9,18.5c0,0,3.4,32.6,10.3,97.6
			c0.8,7.5,0.2,11.9,1.9,18.5c4.7,17.2,16.7,28.9,25.8,35.9"/>
	</g>
	<g>
		<path class="st9" d="M2199,2136.1c-30.1-285.9-206.7-464.6-437.4-440.3c-222.4,23.4-379.1,225.5-346.1,538.5
			c31.1,295.6,218.3,463.4,435.8,440.5C2045.5,2654.3,2235.4,2482,2199,2136.1z M1824.4,2381.7c-86.8,9.1-161.5-57.8-174-175.8
			c-13.2-124.9,49.4-205.6,138.2-214.9c92.1-9.7,162.6,61.6,174.6,175.8C1977.7,2304.7,1901.9,2373.5,1824.4,2381.7z"/>
		<path class="st5" d="M2168,2111.1c-30.1-285.9-206.7-464.6-437.4-440.3c-222.4,23.4-379.1,225.5-346.1,538.5
			c31.1,295.6,218.3,463.4,435.8,440.5C2014.5,2629.3,2204.4,2457,2168,2111.1z M1793.4,2356.7c-86.8,9.1-161.5-57.8-174-175.8
			c-13.2-124.9,49.4-205.6,138.2-214.9c92.1-9.7,162.6,61.6,174.6,175.8C1946.7,2279.7,1870.9,2348.5,1793.4,2356.7z"/>
		<path class="st6" d="M2121.2,2103.6c8.8,40.9,24.3,139.3-17.5,251.8c-33.2,89.4-87.2,146.5-117.6,174.3"/>
		<path class="st6" d="M1581.2,2178.4c-4-19.2-8.3-52.5,0.3-92c4.1-18.7,16.3-70.9,64.1-112.7c42.8-37.4,90.1-45.4,109-47.5"/>
	</g>
	<g>
		<path d="M4158,628.4c-73.3-52.9-152.6-53.6-193.3-49.3c-60.2,6.3-116,28.4-161.3,63.9c-12.9,10.1-24.9,21.2-35.9,33.3
			c-18-33.6-55.1-54.6-94.9-50.4l-0.4,0c-26.3,2.8-49.7,15.8-65.9,36.7c-16.2,21-23,47-19.1,73.2c5.5,36.8,10.5,77.6,15.9,128.5
			l47.8,453.5c5.6,52.8,53,91.2,105.7,85.6l14.8-1.6c52.8-5.6,91.2-53,85.6-105.7l-38.3-364c-1.9-17.8-1.3-35.1,1.5-46.3l0.1-0.5
			l0.2-1.1l0.1-0.5c10.2-52.4,51.8-108.5,121.8-115.9c81-8.5,128.1,43.3,139.7,154l36.5,346.7c5.6,52.8,53,91.2,105.7,85.6l14.8-1.6
			c52.8-5.6,91.2-53,85.6-105.7l-38-361.1C4274.1,767.5,4230.8,680.9,4158,628.4z"/>
		<path class="st5" d="M4107,599.7c-73.3-52.9-152.6-53.6-193.3-49.3c-60.2,6.3-116,28.4-161.3,63.9c-12.9,10.1-24.9,21.2-35.9,33.3
			c-18-33.6-55.1-54.6-94.9-50.4l-0.4,0c-26.3,2.8-49.7,15.8-65.9,36.7c-16.2,21-23,47-19.1,73.2c5.5,36.8,10.5,77.6,15.9,128.5
			l47.8,453.5c5.6,52.8,53,91.2,105.7,85.6l14.8-1.6c52.8-5.6,91.2-53,85.6-105.7l-38.3-364c-1.9-17.8-1.3-35.1,1.5-46.3l0.1-0.5
			l0.2-1.1l0.1-0.5c10.2-52.4,51.8-108.5,121.8-115.9c81-8.5,128.1,43.3,139.7,154l36.5,346.7c5.6,52.8,53,91.2,105.7,85.6l14.8-1.6
			c52.8-5.6,91.2-53,85.6-105.7l-38-361.1C4223.1,738.9,4179.8,652.3,4107,599.7z"/>
		<line class="st6" x1="3728.7" y1="962.5" x2="3762.5" y2="1284.1"/>
		<path class="st6" d="M3815.1,625.5c17.7-10.4,48.1-25.4,88.7-31.3c23.7-3.5,69.6-6.6,121.6,13.1c13.9,5.3,57.9,23.5,96.9,67.8
			c22.8,25.9,35.9,51.7,43.3,69.4"/>
	</g>
	<g>
		<path d="M2475.3,2631.6c-14.6,1.4-28.8-3.5-40.2-13.8c-11.3-10.3-18.4-24.7-20-40.6l-42.8-432.2l-47.7,4.7
			c-14.6,1.4-28.8-3.5-40.2-13.8c-11.3-10.3-18.4-24.7-20-40.6l-2.5-24.8c-3.2-32.7,18.3-61.8,48.1-64.9l48.1-4.7
			c-8.7-99.4,16.6-176.9,75.1-230.3c45.2-42.1,111-69.6,185-77.4l3-0.3c40-3.9,73.7-1.5,95,1.3c15,1.9,28.9,10.7,38,24.1
			c8.8,12.9,12.6,28.7,10.7,44.6l-3.4,27.8c-3.3,27.1-23,47.8-47.9,50.4c-3.9,0.4-7.8,0.4-11.6-0.1c-16.6-2.1-35.3-2.2-55.5-0.2
			l-1.7,0.2c-76.3,8-105.4,50.4-96.8,141.5l121.3-11.8c14.6-1.4,28.8,3.5,40.2,13.8c11.3,10.3,18.4,24.7,20,40.6l2.5,24.8
			c3.2,32.7-18.3,61.8-48,64.9l-121.7,11.9l42.8,432.2c3.2,32.7-18.3,61.8-48.1,64.9L2475.3,2631.6z"/>
		<path class="st5" d="M2443.2,2593c-14.6,1.4-28.8-3.5-40.2-13.8c-11.3-10.3-18.4-24.7-20-40.6l-42.8-432.2l-47.7,4.7
			c-14.6,1.4-28.8-3.5-40.2-13.8c-11.3-10.3-18.4-24.7-20-40.6l-2.5-24.8c-3.2-32.7,18.3-61.8,48.1-64.9l48.1-4.7
			c-8.7-99.4,16.6-176.9,75.1-230.3c45.2-42.1,111-69.6,185-77.4l3-0.3c40-3.9,73.7-1.5,95,1.3c15,1.9,28.9,10.7,38,24.1
			c8.8,12.9,12.6,28.7,10.7,44.6l-3.4,27.8c-3.3,27.1-23,47.8-47.9,50.4c-3.9,0.4-7.8,0.4-11.6-0.1c-16.6-2.1-35.3-2.2-55.5-0.2
			l-1.7,0.2c-76.3,8-105.4,50.4-96.8,141.5l121.3-11.8c14.6-1.4,28.8,3.5,40.2,13.8c11.3,10.3,18.4,24.7,20,40.6l2.5,24.8
			c3.2,32.7-18.3,61.8-48,64.9l-121.7,11.9l42.8,432.2c3.2,32.7-18.3,61.8-48.1,64.9L2443.2,2593z"/>
		<line class="st6" x1="2649.9" y1="2035.9" x2="2487.8" y2="2053"/>
		<line class="st6" x1="2503" y1="2197.3" x2="2486.7" y2="2043.1"/>
		<line class="st6" x1="2526.7" y1="2536.7" x2="2429.8" y2="2547"/>
	</g>
	<g>
		<path d="M3026.7,2573.4c-14.6,1.4-28.8-3.5-40.2-13.8c-11.3-10.3-18.4-24.7-20-40.6l-42.8-432.3l-47.7,4.7
			c-14.6,1.4-28.8-3.5-40.2-13.8c-11.3-10.3-18.5-24.7-20-40.6l-2.5-24.8c-3.2-32.7,18.3-61.8,48.1-64.9l48.1-4.7
			c-8.7-99.4,16.6-176.9,75.1-230.3c45.2-42.1,111-69.6,185-77.4c1-0.1,2-0.2,3-0.3c39.9-3.9,73.7-1.5,95,1.3
			c15,1.9,28.9,10.7,38,24.1c8.8,12.9,12.6,28.7,10.7,44.6l-3.4,27.8c-3.3,27.1-23,47.8-47.9,50.4c-3.9,0.4-7.8,0.4-11.6-0.1
			c-16.6-2.1-35.3-2.2-55.5-0.2l-1.7,0.2c-76.3,8-105.4,50.4-96.8,141.5l121.3-11.8c14.6-1.4,28.8,3.5,40.2,13.8
			c11.3,10.3,18.4,24.7,20,40.6l2.5,24.8c3.2,32.7-18.3,61.8-48,64.9l-121.7,11.9l42.8,432.2c3.2,32.7-18.3,61.8-48.1,64.9
			L3026.7,2573.4z"/>
		<path class="st5" d="M2994.6,2534.8c-14.6,1.4-28.8-3.5-40.2-13.8c-11.3-10.3-18.4-24.7-20-40.6l-42.8-432.3l-47.7,4.7
			c-14.6,1.4-28.8-3.5-40.2-13.8c-11.3-10.3-18.5-24.7-20-40.6l-2.5-24.8c-3.2-32.7,18.3-61.8,48.1-64.9l48.1-4.7
			c-8.7-99.4,16.6-176.9,75.1-230.3c45.2-42.1,111-69.6,185-77.4c1-0.1,2-0.2,3-0.3c39.9-3.9,73.7-1.5,95,1.3
			c15,1.9,28.9,10.7,38,24.1c8.8,12.9,12.6,28.7,10.7,44.6l-3.4,27.8c-3.3,27.1-23,47.8-47.9,50.4c-3.9,0.4-7.8,0.4-11.6-0.1
			c-16.6-2.1-35.3-2.2-55.5-0.2l-1.7,0.2c-76.3,8-105.4,50.4-96.8,141.5l121.3-11.8c14.6-1.4,28.8,3.5,40.2,13.8
			c11.3,10.3,18.4,24.7,20,40.6l2.5,24.8c3.2,32.7-18.3,61.8-48,64.9l-121.7,11.9l42.8,432.2c3.2,32.7-18.3,61.8-48.1,64.9
			L2994.6,2534.8z"/>
		<line class="st6" x1="3201.7" y1="1977.8" x2="3039.5" y2="1994.9"/>
		<line class="st6" x1="3054.7" y1="2139.2" x2="3038.5" y2="1985"/>
		<line class="st6" x1="3078.5" y1="2478.7" x2="2981.6" y2="2488.9"/>
	</g>
	<g>
		<g>
			<path d="M3575.5,2519.1c-51.4,5.4-97.7-32.8-103.2-85.2l-45.6-433.1c-5.5-52.4,31.8-99.4,83.2-104.9
				c51.4-5.4,97.7,32.8,103.2,85.2l45.6,433.1C3664.1,2466.7,3626.8,2513.7,3575.5,2519.1z"/>
			<path d="M3503.3,1861.4c-60.5,6.4-110.4-28.8-116-81.9c-5.7-53.7,37-99.1,99.1-105.7c62-6.5,111.4,28,117.5,82.2
				c3.1,22.3-2.8,44.5-16.5,62.6C3569.4,1842.4,3539.5,1857.6,3503.3,1861.4z"/>
		</g>
		<g>
			<path class="st5" d="M3543.4,2480.5c-51.4,5.4-97.7-32.8-103.2-85.2l-45.6-433.1c-5.5-52.4,31.8-99.4,83.2-104.9
				c51.4-5.4,97.7,32.8,103.2,85.2l45.6,433.1C3632.1,2428.1,3594.8,2475.1,3543.4,2480.5z"/>
			<path class="st5" d="M3471.2,1822.8c-60.5,6.4-110.4-28.8-116-81.9c-5.7-53.7,37-99.1,99.1-105.7c62-6.5,111.4,28,117.5,82.2
				c3.1,22.3-2.8,44.5-16.5,62.6C3537.3,1803.8,3507.5,1819,3471.2,1822.8z"/>
		</g>
		<path class="st6" d="M3534,1734.8c-1,5-4.7,19.9-18.4,32.3c-13.9,12.7-29.5,14.8-34.6,15.3"/>
		<path class="st6" d="M3565.4,2431.4c4.4-3.1,12-9.4,17.9-19.9c2.4-4.4,7.2-13.2,7.4-24.8c0.1-3.6-0.5-4.5-2.1-19.8
			c-0.5-4.6-1-9.1-1.4-13.7c-12.2-115.4-24.3-230.8-36.5-346.2"/>
	</g>
	<g>
		<path d="M4145.5,2458.9c-111.4,11.7-210.1-15.3-285.6-78.3c-74.9-62.5-120.8-155.2-132.7-268.2c-11.9-113.1,16.7-219.2,80.5-298.7
			c65.9-82.1,163.5-132.1,282.3-144.6c59.5-6.3,109.5-0.6,140.9,5.2c42.7,8,71.1,49.2,63.3,91.8l-0.6,3.1
			c-6.3,34.6-34.2,60.3-69.2,64c-7.8,0.8-15.7,0.5-23.5-1c-28-5.4-59.7-6.3-94.1-2.7c-131.9,13.9-207.5,114.9-192.5,257.4
			c14.6,138.6,109.9,222.6,237.3,209.2c34.8-3.7,66.2-11.7,96.2-24.6c7.3-3.1,15-5.2,22.8-6c36.2-3.8,71.1,18.5,82.9,53.1
			c13.3,39-5.1,81-42.8,97.7C4262.5,2437.6,4203.8,2452.7,4145.5,2458.9z"/>
		<path class="st5" d="M4093.7,2422.3c-111.4,11.7-210.1-15.3-285.6-78.3c-74.9-62.5-120.8-155.2-132.7-268.2
			c-11.9-113.1,16.7-219.2,80.5-298.7c65.9-82.1,163.5-132.1,282.3-144.6c59.5-6.3,109.5-0.6,140.9,5.2c42.7,8,71.1,49.2,63.3,91.8
			l-0.6,3.1c-6.3,34.6-34.2,60.3-69.2,64c-7.8,0.8-15.7,0.5-23.5-1c-28-5.4-59.7-6.3-94.1-2.7c-131.9,13.9-207.5,114.9-192.5,257.4
			c14.6,138.5,109.9,222.6,237.3,209.2c34.8-3.7,66.2-11.7,96.2-24.6c7.3-3.1,15-5.2,22.8-6c36.2-3.8,71.1,18.5,82.9,53.1
			c13.3,39-5.1,81-42.8,97.7C4210.6,2401.1,4152,2416.2,4093.7,2422.3z"/>
		<path class="st6" d="M4228.6,2349.5c-30.3,12.7-73.3,27-126.5,33.3c-55.9,6.6-103.1,2.1-136.4-3.6"/>
		<path class="st6" d="M3870,1849.4c15.2-19.6,43.5-50.4,88.3-73.3c70.9-36.2,138-29.2,163.3-25.2"/>
	</g>
	<g>
		<path d="M4754.2,2394.8c-112.7,11.9-211.3-14.9-285.1-77.4c-72.2-61.1-116.5-152.8-128.4-265.2c-11.7-111.6,11.1-216.8,64.2-296.4
			c57.1-85.4,143.7-136.5,250.3-147.7c110.6-11.7,203.4,23.9,268.3,102.9c66.7,81.2,83.7,182.6,87.9,222.4c0.5,5.1,1,10.3,1.3,15.4
			c2.7,41.4-27.5,77.2-68.8,81.5l-396.8,41.8c-5.2,0.5-9.5,3.1-12.5,7.5c-2.9,4.3-3.8,9.7-2.3,14.8
			c29.1,101.5,110.2,152.9,222.5,141.1c53.8-5.7,97-15.9,136-32.2c7-2.9,14.3-4.8,21.8-5.6c35.6-3.8,68.8,17.2,80.7,50.9
			c13.2,37.5-4.9,79.6-41.3,95.9C4895,2370,4828.4,2387,4754.2,2394.8z M4661.1,1759.4c-96.2,10.1-128.9,92.5-139.8,140.6
			c-1.2,5.4,0.2,10.9,3.9,15.1c3.8,4.3,9.2,6.4,14.8,5.8l262-27.6c5.2-0.5,9.8-3.3,12.7-7.7c2.9-4.3,3.6-9.1,2.2-13.9
			C4803.3,1825.1,4764.9,1748.5,4661.1,1759.4z"/>
		<path class="st5" d="M4702.4,2358.2c-112.7,11.9-211.3-14.9-285.1-77.4c-72.2-61.1-116.5-152.8-128.4-265.2
			c-11.7-111.6,11.1-216.8,64.2-296.4c57.1-85.4,143.7-136.5,250.3-147.7c110.6-11.7,203.4,23.9,268.3,102.9
			c66.7,81.2,83.7,182.6,87.9,222.4c0.5,5.1,1,10.3,1.3,15.4c2.7,41.4-27.5,77.2-68.8,81.5l-396.8,41.8c-5.2,0.5-9.5,3.1-12.5,7.5
			c-2.9,4.3-3.8,9.7-2.3,14.8c29.1,101.5,110.2,152.9,222.5,141.1c53.8-5.7,97-15.9,136-32.2c7-2.9,14.3-4.8,21.8-5.6
			c35.6-3.8,68.8,17.2,80.7,50.9c13.2,37.5-4.9,79.6-41.3,95.9C4843.2,2333.5,4776.6,2350.4,4702.4,2358.2z M4609.2,1722.9
			c-96.2,10.1-128.9,92.5-139.8,140.6c-1.2,5.4,0.2,10.9,3.9,15.1c3.8,4.3,9.2,6.4,14.8,5.8l262-27.6c5.2-0.5,9.8-3.3,12.7-7.7
			c2.9-4.3,3.6-9.1,2.2-13.9C4751.5,1788.6,4713.1,1711.9,4609.2,1722.9z"/>
		<line class="st6" x1="4867.1" y1="1956.4" x2="4602.1" y2="1984.3"/>
		<path class="st6" d="M4843.7,2284.8c-30.3,12.7-73.3,27-126.5,33.3c-55.9,6.6-103.1,2.1-136.4-3.6"/>
		<path class="st6" d="M4462.7,1781c6.9-13.8,31.2-58.4,85.2-83c69.1-31.5,133.1-5.7,143.8-1.1"/>
	</g>
	<path class="st10" d="M1206.7,833.7"/>
	<path class="st11" d="M1216.2,939.4c2.6-6,1.6-10.9-0.3-20.1c-1.8-8.7-4.8-13.7-7.5-19.4c-1.9-4-4.3-8.4-9-9.7
		c-2.6-0.7-5.4-0.3-8.1,0.1c-3.6,0.5-7.1,1-10.7,1.6c-2.4,0.3-4.8,0.7-7,1.7c-1.4,0.6-3.6,1.9-6,4.6c-7,7.9-14.5,26.5-9.1,32.1
		c0.3,0.3,2,2,4.3,3.9c1.8,1.5,3.2,2.6,4,3.1c4,2.5,7.9,4.9,11.9,7.4c4.7,2.9,9.5,5.9,15,7.1c2.3,0.5,6.1,1,10.4-0.4
		C1212.1,948.9,1215.4,941.4,1216.2,939.4z"/>
	<path class="st12" d="M526.7,2459.4c1.7,3.8,11.4,1.4,13.8,1.4c34.4-0.2,36.8,137.5,95.3,163.7c3.1,1.4,22.5,5.5,61.3,13.7
		c0,0,10.5,2.2,27.6,2.7c18.5,0.5,24.3-2,28.3-4.9c1.4-1,11.1-8.1,11.2-18.1c0-7.3-5.1-12.2-14.3-20.8c-10.4-9.7-20.3-15.1-26.1-18
		c-13-6.5-18.9-6.3-26.8-10.3c-25.3-13.1-39.5-35-44.5-42.9c-7.3-11.5-12.3-26.4-22.3-56.2c-8.5-25.3-8.8-30.6-16.2-47.9
		c-7.7-17.9-12.8-29.5-23.8-40.9c-13.8-14.2-33.7-24.8-39.9-19.3c-0.4,0.4-0.7,0.7-0.9,0.9c-9.7,11.7-16.2,34.5-16.7,36
		c-4.6,16.4-9.9,35.8-7,44.4c0.5,1.4,1.9,4.6,1.7,9.1C527.3,2456.1,526,2457.7,526.7,2459.4z"/>
	<path class="st12" d="M540.3,2521.2c-1.5,28.1-2.9,56.2-4.4,84.3c-3-0.3-6.1-0.6-9.1-0.9c2.3-29.5,3.3-59.1,4.3-88.6
		c0.6-18,1.1-36.3-3.4-53.5c-0.8-2.8,17.1-0.7,18.3-0.1c9.9,4.9,6.1,4.7,4.2,12.2C546,2490.8,541.2,2503.5,540.3,2521.2z"/>
	<path class="st11" d="M723.8,2579.1c0.3,2.8-5.4,5.8-7.6,7c-14.9,7.7-29.6,5.6-42.1,3.6c-8.5-1.3-20.2-3.3-33.7-11
		c-5-2.9-9.4-6-13-9c-1.5-1.8-3.7-4.6-6.1-8.3c-2.3-3.5-6.2-10.1-11.5-24.3c-3.4-9.1-2.9-9.2-5.4-16c-3.6-9.7-6.6-14.3-14.5-28.9
		c-7.3-13.5-4.5-8.9-14.7-27.9c-16.2-30.2-15.3-26.7-17.7-32.6c-9.6-23.1-9.4-42.3-9.3-47.2c0.1-2.8,0.2-3.1,0.5-5.8c0,0,0,0,0,0
		c0,4.6,0.9-8.7,1-9.4c0-0.1,0,0,0,0c0.5-7,8.8-48.6,10.5-57.4c5.5-29.8-1-40.2,7.7-46.1c5.3-3.6,10.1-1.4,23,0
		c37,3.9,55-8.6,61.4,0c3.9,5.3-1.9,11.3-7.7,30.7c-5.3,17.7-6.1,37.4-7.7,76.8c-0.3,8.6-0.7,20.7-0.6,35.4c0,0,2,28,8.2,53.4
		c0.1,0.6,0.3,1.1,0.4,1.5c4.8,19.2,5.1,12.3,16.2,47.9c0,0,12.2,39.2,23.1,48.6c4.4,3.8,9.3,6.8,9.3,6.8c1.1,0.7,2.4,1.4,3.7,2.2
		C711.4,2576.5,723.3,2575.1,723.8,2579.1z"/>
	<path class="st12" d="M298,2456c-2.4,3.5-12.8-0.3-15.3-0.7c-37.8-5.3-61.3,130.6-129.6,148c-3.6,0.9-25.5,2.1-69.4,4.6
		c0,0-11.9,0.7-30.7-1.4c-20.4-2.2-26.3-5.5-30.3-9c-1.4-1.2-11-9.7-9.5-19.5c1.1-7.2,7.5-11.3,18.9-18.5c12.9-8,24.6-11.9,31.4-14
		c15.3-4.5,21.7-3.4,31-6.3c29.8-9.2,48.7-28.9,55.4-36c9.7-10.3,17.5-24.3,33.1-52.3c13.2-23.7,14.3-29,25.1-45
		c11.2-16.6,18.5-27.3,32.4-37c17.4-12.1,40.8-19.6,46.7-13.3c0.4,0.4,0.7,0.8,0.8,1c8.9,13,12.6,36.5,12.8,38
		c2.5,16.9,5.4,36.8,0.9,44.9c-0.7,1.3-2.8,4.3-3.3,8.8C297.9,2452.5,299.1,2454.4,298,2456z"/>
	<path class="st12" d="M273.7,2515c-2.7,28-5.3,56-8,84.1c3.4,0.2,6.8,0.3,10.1,0.5c2-29.5,5.4-58.9,8.8-88.3
		c2.1-17.9,4.3-36.1,11.9-52.4c1.3-2.7-18.6-3.2-20.1-2.8c-11.6,3.4-7.5,3.7-6.5,11.4C272.1,2484.2,275.4,2497.5,273.7,2515z"/>
	<path class="st13" d="M375.7,376.4c7.3-10.6,16.4-26,23-46.1c6.2-18.6,8.3-35.1,9-47.4c20.2,7.5,40.4,15.1,60.6,22.6
		c5.3,2,10.7,4,15.5,7.1c4.3,2.8,8,6.4,11.9,9.8c22.4,19,52.9,28,82,24.1c-5.8-17.9-6.8-37.3-2.9-55.7c8.3-38.9,37.1-69.8,64.8-98.5
		c1.3-1.4,4.1-4,8.4-5.5c8.6-3.1,17.9,0.2,27.2,5.2c22.6,12,36.6,28.6,38.4,30.7c20.6,24.8,25.2,44.9,30.6,43.7
		c7-1.5,2.7-35.1,7.8-36c4.6-0.8,14.7,27,23,61.4c9,36.9,12.7,67.7,14.4,88.3c-40.2,23.6-82.8,42.7-126.4,59.1
		c-33.5,12.7-67.9,23.9-103.5,28.3c-14,1.8-28.3,2.4-42.2-0.2c-9.8-1.9-16.8-4.3-23.5-6.7c-50.2-18.4-83.1-32-102.9-38.3
		c-7.7-2.5-15-6.6-23-7.7c-4.6-0.6-11-0.9-12.5-4.5c-0.8-1.8,0-3.7,0.5-4.8C360.2,396,372.8,380,375.7,376.4z"/>
	<path class="st14" d="M481.4,9.9c-30.1,2.9-60,12.2-84.1,30.4c-4.9,3.7-9.8,8.5-10,14.6c14-0.3,28.1-0.7,42.1-1
		c-12,2.4-42.5,10.2-64.1,37.4c-15.1,19-18.9,38.5-22.9,61.3c-3.1,17.9-4.6,36.5,0.5,54c2.4,8,6.1,15.6,10.4,22.7
		c20.7,34.4,55.8,59.9,94.9,69.1c9.8,2.3,20.1,3.7,28.8,8.7c6.6,3.8,11.9,9.4,17.7,14.4c22.4,19.3,53.2,28.5,82.6,24.8
		c-7.9-38.9,0.3-65,5.6-77.4c7.3-17.2,15.8-29.1,23-38.4c18.1-23.1,31.8-40.6,51.2-41.7c19.8-1.1,35.9,15.1,55.2,36
		c8.8,9.5,20.8,24,31.9,44.1c4.6-9.1,6.7-17.2,7.7-23c1.3-7.5,1.9-11.3,0-15.4c-3.1-6.6-9.7-7.3-20.2-13.2c0,0-3.8-4.1-19.8-15
		c-34.5-23.8-53.7-64-66.2-104c-4.6-14.7-8.5-29.9-16.5-43.1C600.8,8.1,529.7,5.2,481.4,9.9z"/>
	<path class="st11" d="M657.7,44.7c7.2-4.1,15.4-4.1,31.8-4.7c13-0.5,26.3-0.9,38.5,3.5c10.2,3.7,18.8,10.6,27.2,17.4
		c8.7,7,9,10.2,8.7,12.1c-0.7,5.1-8.4,6.6-19.7,11.6c-7.9,3.5-38,16.8-44.9,40.2c-0.7,2.5-1.1,4.6-1.2,5.8
		c-3.2-0.5-7.9-1.2-13.7-2.1c-21.3-3.1-24.1-3-26.1-3.7c0,0-0.5-0.2-1-0.4c-7.1-3.2-12.9-24.5-12.9-24.5c-6-22.1-7.2-19.3-7-23.8
		C638,62.9,647.1,50.8,657.7,44.7z"/>
	<path class="st15" d="M370.1,413.7c-15-2.4-40.5-6.4-63.5,8.7c-23.2,15.3-29.4,40.6-30.7,46.1c-9.9,40.5,15.7,74.6,23,84.5
		c12.1,16.2,24.3,24.1,46.1,38.4c30,19.6,53.9,28.7,99.8,46.1c38.9,14.7,66,25,79.4,22.5c1.5-0.3,7.8-1.6,12.2,1.8
		c4.2,3.3,4.7,9.3,4.9,13.1c1,20.5,1.5,30.9-4.4,47c-5.9,16.2-9.2,13.4-15.4,30.7c-6.9,19.4-5.6,31.3-5,35.9
		c1.4,9.1,4.6,10,9.7,21.8c7.3,16.8,3,18.4,10.6,49.8c3.7,15.2,6.7,23.2,7.7,38.4c0.4,5.4,0.6,9.6,0,15.4
		c-2,19.3-10.6,25.4-7.7,30.7c4.9,8.8,37.1,7.6,46.1-7.7c5.4-9.2-2.1-15.9,0-38.4c0.7-7.3,3-15.2,7.7-30.7
		c9.3-30.9,11.4-29.5,15.4-46.1c6.2-26,0.5-27.4,7.7-46.1c3.3-8.5,8.9-19.5,12.5-31.3c3.6-11.5,5.1-20.1,5.6-23
		c5.2-28.8,36.9-76.7,80.6-98.7c20.4-10.3,19.1-3.2,47.2-15.9c29.5-13.4,49.5-29.7,68.9-45.7c23.7-19.6,35.5-29.4,46.3-46.4
		c14.7-23.3,19.2-46.2,20.8-60.4c0.9,2.3,2.5,5.7,5.5,9.1c2.4,2.7,5.2,4.9,8.4,6.6c7.2-10.6,1.9-25.4-6-35.5
		c-7.9-10.1-18.4-18.6-23.1-30.6c-1.8-4.6-2.8-9.7-6-13.4c-2.5-2.9-6-4.7-9.6-6.1c-44.6-18.1-94.5,2.6-138.1,23
		c-21.2,9.9-42.4,19.9-63.6,29.8c-45.5,21.3-91.9,36.8-144.6,29.7c-40.3-5.4-81.1-25-89.2-28.9C405.8,426.5,394.3,417.6,370.1,413.7
		z"/>
	<path class="st16" d="M505.3,374.4c-3.5-15-7.1-34.6-21.5-53c-3.7-4.7-7.6-9.7-14.6-14.3c-1.7-1.1-23.9-15.4-41.6-6
		c-5.8,3.1-10,8.4-13.4,14c-17.3,28.2-17.4,64.1-9.8,96.4c1,4.2,2.1,8.5,4.6,12.1c3.9,5.8,10.5,9.1,16.9,12
		c13.5,6.1,27.3,11.6,41.4,16.4c7.3,2.5,30.2,13.8,36.8,8.3c5.9-5,4.5-34.4,4.8-42.1C509.3,403.5,508.6,388.8,505.3,374.4z"/>
	<path class="st11" d="M887.3,147.9c71.8,102.8,79.8,223.7,77.3,295.2c-0.9,24.1-2.8,69.9-20.6,125.2c-12,37.3-17.3,35.5-27.4,68.9
		c-4.7,15.4-21.9,75.8-11,153.8c3.4,24.4,10.9,59.4,28.4,99c-8.6,1.6-23.5,4.2-35.1-4.6c-10-7.5-16.6-18.6-23-29.4
		c-11.3-19.1-22.6-38.1-33.9-57.2c-8.5-14.4-13.3-21.3-20.8-30.6c-5-6.3-19.2-23.9-38.5-38.7c-22.9-17.4-25.7-10-38.4-23
		c-13-13.4-17.9-29.4-23-46.1c-4.7-15.2-6.5-28.4-7.2-37.8c15-4.9,34.7-12.7,57.2-23.6c14.7-7.1,32.3-16.2,52.9-31.6
		c21.1-15.7,42.8-31.8,58.3-60.7c9.8-18.2,13.6-35.1,15.4-46.1c4.5,8.4,10.2,12.5,13,11.3c2.4-1,3-6,2.4-11.3
		c-1.1-8.2-4-20.6-12.4-32.6c-10.8-15.3-13.1-10.9-18.3-21.2c-6-11.7-6.8-25.3-7.7-38.4c-0.2-3.5-0.1-3-0.4-10.5
		c-1-28.3-3.4-47.7-4-52.2c-1-7.8-1-3.8-3.3-21.7c-3.5-26.6-3.4-37.8-13.3-47.8c-2.3-2.3-5.2-4.7-9.9-7.2
		c-25.8-14.2-68.2-14.4-84.1-14.1c-13.8-52.9-29.4-68.7-41.8-72.3c-2.8-0.8-19.3-5-19.9-12.1c-0.1-1.8,0.7-4.1,2-7.3
		c0,0,1.5-4.8,4.4-8.5C760.4,44,845.3,87.7,887.3,147.9z"/>
	<path class="st17" d="M876.2,389.7c4.7-3.1,3.3-11.6-1.4-44c-5.1-35.4-7.6-53.1-7.7-53.8c-0.2-4.3-1.3-28-7.7-46.1
		c-1.3-3.8-4-7.8-8.1-12.3c-4-4.4-12.9-12.6-45.7-18.4c-25.7-4.6-41.1-7.3-48.1,1.3c-3.5,4.4-5.4,10-2.9,17.3
		c6.8,19.9,16.1,38.9,21.6,59.1c3.6,13.3,5.6,24.2,6.5,31.4c1.9,14.9,6.3,29.4,7.6,44.4c0.2,2,0.5,7,4.1,9.7
		c3.8,2.9,9.3,1.4,11.7,1.1c12-1.4,23.8-1.9,35.8-0.2C863.2,382.4,869.9,393.8,876.2,389.7z"/>
	<path class="st18" d="M656.4,125.3c18.6-3.1,37,5.4,53.8,14.1c9.5,4.9,19.2,10.2,26.1,18.4c6.5,7.7,10.1,17.4,13.6,26.9
		c7.1,19.3,8.5,26,6,32.1c-1,2.4-1.9,4.5-4,5.9c-10.6,7-36.5-15.2-43.4-21.1C694.2,189.5,672.5,166.5,656.4,125.3z"/>
	<path class="st19" d="M866.7,804.3c-17.5-7.4-29.1-23.9-39.7-39.7c-7.5-11.2-15.1-22.4-21.9-34c-20.9-35.6-35-75.1-41.2-115.9
		c-0.3-1.7-0.5-3.6,0.3-5.1c0.7-1.4,2.2-2.2,3.5-3c18.8-10.5,36.7-22.4,53.7-35.6c8.7-6.7,14.7-11.6,25.2-21
		c11.2-10,20.5-19.5,28.1-27.7c-0.9,3.7-2.1,9-3.3,15.4c-1.7,9-2.5,15.9-3.1,21.8c-2.6,23.3-3.6,35-3.6,35c-2.2,23.3-4,46.7-5,70.2
		C857.9,711.3,859.1,758.2,866.7,804.3z"/>
	<path class="st16" d="M596.6,411.6c-0.7-11.7,0.7-20.9,1.7-27.5c0.6-3.9,2.9-17.5,9.5-34.4c1-2.6,5.4-13.5,13.5-27
		c8.1-13.5,13.2-22.1,23-30.7c7.9-6.9,17.7-15.4,30.7-15.4c12.5,0,21.6,8,28.8,14.6c0,0,37.4,27.9,31.1,104.4
		c-0.2,1.9-0.4,3.8-1.3,5.4c-1.1,1.9-3.1,3.1-5,4.1c-26.2,15-53.5,27.8-81.8,38.4c-8.2,3.1-28.9,14.5-36.9,9.4
		C599.1,445.8,597.4,425.3,596.6,411.6z"/>
	<path class="st11" d="M673.2,696.2c-5.8,10.2-6.5,12.1-8.8,14.7c-2.8,3.1-6.2,5.6-9.7,8c-8.4,5.9-16.8,11.9-25.1,17.8
		c0.3-20.7,7.2-41.2,19.3-58c11.4-15.7,24.2-26.4,35.9-35.4c8.7-6.7,16.1-12.5,21-13.5c0.5-0.1,2.8-0.6,4.7-2.3
		c2.3-2.1,3.3-5.2,3-5.4c-0.8-0.4-14.1,17.4-23,38.4c-2.5,5.9-7.1,17.6-13.2,28.5C676.3,690.8,675.9,691.5,673.2,696.2z"/>
	<path class="st20" d="M456.3,408.3c0.8,2,4.4,11.5,11.7,22.5c4.3,6.5,9.2,12.8,15.7,17.1c6.5,4.3,14.9,6.3,22.2,3.7
		c1.6-17.4,2-34.9,1-52.4c0-0.9-0.1-1.8-0.6-2.6c-0.5-0.9-1.5-1.3-2.4-1.8c-3.5-1.9-12.6-13.4-20.4-21.3
		c-6.1-6.2-11.5-9.8-15.7-12.7c-8.6-5.8-12.9-8.7-15.4-7.7C444.6,356.6,448.4,387,456.3,408.3z"/>
	<path class="st21" d="M473,408.5c0,0,10.3,21.4,33,23.4c0.9,0.1,1.9,0.1,2.6-0.6c0.5-0.6,0.5-1.5,0.5-2.3
		c-0.4-11.3-0.9-22.6-1.3-33.9c-3.5-4.8-6.8-8.5-9.2-11.1c-7.4-7.8-12.5-10.9-14-11.7c-4.8-2.8-7.2-4.2-9.1-3.6
		C468.8,370.8,465.2,392,473,408.5z"/>
	<path class="st20" d="M700.9,411.7c9.1,1.1,18.8-3.8,20.3-4.6c4.1-2.1,10.6-5.3,14-12.2c1.2-2.4,1.3-3.8,1.3-18.5
		c0-15.4,0-15.3,0-15.4c-0.3-9.7-1.3-37.4-7.7-38.4c-2.6-0.4-5.2,3.9-7.7,7.7c-14.7,22.5-43.7,16.2-51.1,31.9
		C662.6,378.1,680.8,409.3,700.9,411.7z"/>
	<path class="st21" d="M695.1,378.4c3.8,5.4,9.2,10.4,15.9,10.9c7.5,0.6,14.4-4.8,17.6-11.6c0.9-2,1.6-3.8,2.1-5.7
		c1.4-5.2,1.5-10.1,0.7-16.3c-1.5-11.5-3-22.8-10.2-25.6c-2.3-0.9-4.4-0.5-7.7,0c-1.4,0.2-6,1.1-15.4,7.7c-4.5,3.2-6.8,4.8-7.8,6.1
		C683.7,352.7,688,368.4,695.1,378.4z"/>
	<path class="st22" d="M529.4,599.9c5.6,11.2,11.9,23,22.9,29c9.7,5.3,21.3,5.1,32.3,4.8c7.7-0.2,15.7-0.5,22.2-4.5
		c8.4-5.1,12.5-14.9,15.9-24.2c14.5-38.7,27.8-77.9,39.9-117.4c-16.8-0.4-33.5-2.6-49.8-6.5c0,10.1-5.3,20-13.7,25.6
		c-8.4,5.6-19.6,6.7-28.9,2.9c-6.4-2.6-12-7.4-18.8-8.7c-10.6-2-20.6,4.7-30.6,8.8c-10,4.1-24.5,3.6-28.2-6.5
		c-0.7-1.8-0.9-3.7-1.6-5.4c-3.8-8.8-22.2-10.9-22.9,0.9c-0.5,8.6,17.2,22.8,22.1,29.8C505.9,550.7,517.3,575.6,529.4,599.9z"/>
	<path class="st23" d="M526.6,519.2c4.7,14.2,19.8,25.3,34.4,22.2c3.4-0.7,6.6-2.1,9.7-3.5c2.7-1.2,5.5-2.4,7.4-4.6
		c3.5-4,3.3-9.8,3-15.1c-0.1-1-0.2-2.1-0.7-2.9c-0.5-0.7-1.4-1.1-2.2-1.5c-6-2.8-11.9-5.6-17.9-8.3c-2.7-1.2-5.4-2.5-8.2-3.3
		C539.1,498.3,521.3,503.3,526.6,519.2z"/>
	<path class="st24" d="M602.3,559.1c-6.8,4.2-12.2,11.9-20.2,12.1c-3.9,0.1-7.9-1.7-11.5-0.3c-1.8,0.7-3.2,2.1-4.5,3.4
		c-10.9,11-22.2,22.6-26.8,37.4c-1.4,4.5,0.7,7.1,1.4,8.4c2.1,3.9,6.3,6.3,13.5,8.1c12.4,3.2,23.1,2.2,28.8,1.5
		c16.8-2,25.2-3,30.7-7.7c8.3-7,4.5-12.8,15.4-38.4c5.8-13.6,9.1-17,7-21.1C632.2,555.2,613.9,551.8,602.3,559.1z"/>
	<path class="st25" d="M536.8,485.5c1.4,0.8,6.6,3.7,14,4.2c3,0.2,6,0.4,8.8-0.6c3.8-1.4,6.5-4.7,8.9-8c3.3-4.4,6.7-8.7,10-13.1
		c-17.2,3.5-30.8,2.8-40.5,1.3c-8.6-1.3-15.1-3.4-16.4-0.9C519.7,471.8,528.3,480.9,536.8,485.5z"/>
	<path class="st26" d="M618.8,260.6c10.1-12.9,22.8-23.7,37.2-31.7c5.3-2.9,11.3-5.5,17.2-4.4c9.6,1.8,15,12.1,23.2,17.4"/>
	<path class="st27" d="M931.8,748.8c11,13.6,15,19.4,24.1,31.5c4.1,5.4,8.3,11.6,7.4,18.4c-12.2,1-24.4,2-36.6,3
		c-6.7,0.6-14.8,2.4-18.8-2.1c-2.6-2.9-2.3-7.1-2.2-8.6c1.5-26.6-5.4-84.2,0-84.5c1.4-0.1,1.3,3.9,5.9,13.6
		C914.6,726.9,920.2,734.5,931.8,748.8z"/>
	<path class="st28" d="M690.5,368.7c7.6,3,23.4-10.1,23-23c-0.2-8.5-7.4-15.2-9.3-15.6c-2-0.4-3.9,0-3.9,0c-0.7,0.1-3.1,0.7-7.9,4.5
		c-0.8,0.7-3.1,2.6-4,3.6C682.8,344.2,682.5,365.5,690.5,368.7z"/>
	<path class="st29" d="M728.9,322.6L728.9,322.6c0,0-4.5-15.8-7.7-23c-6-13.7-21.2-28.6-38.4-30.7c-19.3-2.4-34.5,12-46.1,23
		c-28.6,27.2-34.6,62.1-38.4,84.5c-2.3,13.3-6.9,35,0,38.4c5.2,2.5,12.4-7.7,30.7-23c24.7-20.7,28.8-16.5,69.1-46.1
		C708.8,337.9,728.9,322.6,728.9,322.6z"/>
	<path class="st28" d="M471.5,387.6c5,5.6,14.9,8.2,19.3,4.2c4.8-4.3,1.7-14.9-2.2-20.5c-2.9-4-6.9-6.5-9.3-7.9
		c-3.2-1.9-4.8-2.8-6.1-2.4C468.2,362.5,463.7,378.7,471.5,387.6z"/>
	<path class="st29" d="M457.1,356.1c-17.1-5.2-35.6-1.9-53.5-2.8c-0.8,0-1.7-0.1-2.3-0.6c-1-0.8-0.8-2.6-0.6-3.9
		c4.2-22.1,15.6-36.6,15.6-36.6c5.5-7,8.3-10.5,13-12.6c7.7-3.4,15.2-1.6,23.6,0.6c9.2,2.4,20.5,5.2,30.1,14.8
		c6.6,6.5,10.1,16.5,17.2,36.6c0,0,3.3,9.4,5.9,24.8c2.1,12.5,1.2,14.8,0,15.4c-2.5,1.2-7.5-4.5-10-7.1
		C491.4,379.4,474.2,361.3,457.1,356.1z"/>
	<path class="st30" d="M337.3,1068.2c-12.5,0-29.8-7.5-61.2-21.1c-7-3-15.5-7-32.4-14.9c-14.7-6.9-21.6-10.2-26.2-12.5
		c-4.8-2.3-7.2-3.5-13.3-6.2l-2.6-1.1c-7.2-3.1-19.1-8.3-34.7-15.7c-12.5-5.9-23.3-11.1-25.9-22c-1.1-4.4,0.2-8.9,2.3-16.3
		c2.1-7.4,4.9-15,13.8-33.4c6.1-12.6,7.6-15.3,11.6-17.2c2.2-1,4.5-1.6,7-1.6c6.9,0,13.9,3.9,24.5,9.7l1.7,0.9
		c4.9,2.7,10.1,5.4,15,8c6.1,3.2,12.5,6.5,18.6,10c0.3,0.2,31,17.4,72.8,29.8c3.9,1.1,7.3,2.1,10.6,2.1c1.8,0,3.4-0.3,5-0.9
		c7.3-2.6,11.6-11.2,18-28.1c5.1-13.6,7.3-21.3,9.3-28.2c1.5-5.2,2.9-10,5.2-16.6c4.4-12.2,14.1-29.6,31.7-61.3
		c9.3-16.7,13.9-25,19.1-33.8c22.1-37,33.2-55.6,48.2-68.6c24.5-21.2,46.5-25.3,64.2-28.6c4.6-0.9,8.1-1.3,10.9-1.3
		c1.9,0,7.7,0,11.3,4.5c4.3,5.3,1.7,12.2-1.2,18.8c-3.5,7.8-10.1,19.9-21,40l-2.8,5.1c-7.1,13.1-9,16.6-11.9,22.6
		c-8.9,18.5-14.7,32.5-18.3,41.3c-1.9,4.6-3.4,8.1-4.9,11.4c-6.2,13.5-18,35.1-18.5,36c-3.2,5.6-3.9,7.7-7.2,16.5
		c-2.4,6.5-6.1,16.2-12.8,33.2c-11,27.6-17,42.8-25.4,59.2c-9,17.8-14,27.5-23.4,39.3c-13.8,17.3-29.4,36.9-52.7,40.4
		C340.2,1068.1,338.8,1068.2,337.3,1068.2C337.3,1068.2,337.3,1068.2,337.3,1068.2z"/>
	<path class="st31" d="M810.7,1058.1c12.4-1.4,28.7-0.1,32.1,11.9c1.7,6.2-1.4,13.1-6.7,16.8c-5.3,3.7-12.2,4.4-18.5,3
		c37.7,1.9,73,28,85.9,63.5c0.6,1.8,1.2,3.6,1.2,5.5c-0.3,7.7-11.3,10.5-18.2,7s-11.6-10.2-18-14.5c20.1,15.7,21.6,46.3,13.1,70.4
		c-1.5,4.2-3.4,8.6-7.1,11.1c-4.7,3.2-10.9,2.5-16.4,1.4c-59.5-12.1-107.2-67.9-109.8-128.6C746.9,1072.6,783.3,1061.1,810.7,1058.1
		z"/>
	<path class="st23" d="M245.1,1267.2"/>
	<path class="st32" d="M333.7,956.8c-1.3,3.7-3.4,8.5-6.7,13.5c-4.1,6.2-8.6,10.5-12.1,13.3"/>
	<path class="st32" d="M151.2,987.9c-0.3-0.9-0.9-2.6-1.3-4.7c-2.3-10.4,1.1-17.1,13.7-48c2.3-5.7,4.9-12.2,10.1-20.2
		c2.1-3.3,4.1-6,5.6-7.8"/>
	<path class="st33" d="M489.7,314.7c-1.5,1.2-3.5-1-4.2-2.8c-5.3-14.3-9.5-29-12.3-44"/>
	<path class="st33" d="M407.7,278.1c-6.2-6.3-10.2-14.8-10.9-23.6"/>
	<path class="st33" d="M646.8,190.2c0-1.6,1.5-2.8,2.9-3.8c4.6-3.2,9.1-6.3,13.7-9.5"/>
	<path class="st33" d="M894.1,425.5c-6.6-3.9-13.7-6.7-21.2-8.4"/>
	<path class="st33" d="M589.6,569.1c-3.7,5.6-6.4,11.9-8.1,18.4"/>
	<path class="st26" d="M415.4,355.4c-18.4,3.2-38.3-2.7-51.2-15"/>
	<path class="st26" d="M422.2,357.6c-13.6-5-27.2-9.9-40.8-14.9c-5.6-2.1-12-4.8-13.5-10.2"/>
	<path class="st26" d="M428.4,355.8c-22.6-3.3-42.9-14.3-54.2-29.4"/>
	<path class="st26" d="M722.8,325.1c11.9,3.6,26.3-0.7,33-9.9"/>
	<path class="st26" d="M722.2,329.1c7.2-5.5,14.4-11.1,21.6-16.6"/>
	<path class="st26" d="M709.1,337.2c7.1-7.4,11.7-16.6,12.9-26.1"/>
	<path class="st34" d="M504.7,486.6c-28.2,5.5-56.8,9.1-85.5,10.8"/>
	<path class="st34" d="M591.5,471.3c5.4,3.9,12,5.8,18.5,7.3c24.2,5.7,49.3,7.4,74,5.2"/>
	<path class="st34" d="M530.5,446.7c12.7-4.8,27.1-5.1,40-0.8"/>
	<path class="st34" d="M840.4,224.4c9.9,5.5,20.1,10.3,30.6,14.5"/>
	<path class="st34" d="M660.8,134.6c21.7,1.8,41.4,14.3,56,30.3c14.6,16.1,24.8,35.6,34.2,55.2"/>
	<path class="st11" d="M63.4,2545.4c-0.8,2.7,5.1,6.5,7.3,8c15.2,9.8,31.7,9.9,45.7,9.7c9.5-0.1,22.7-0.3,38.7-6
		c6-2.1,11.2-4.5,15.7-7c2-1.6,4.8-4,8-7.3c3.1-3.2,8.4-9.1,16.4-22.3c5.1-8.5,4.5-8.7,8.4-15c5.5-9.1,9.4-13.2,20.3-26.5
		c10.1-12.3,6.3-8.2,20.4-25.5c22.4-27.5,20.8-24.2,24.4-29.7c14-21.5,16.8-40.5,17.4-45.3c0.3-2.8,0.3-3.1,0.3-5.8
		c0,0-0.1-2,0.4-9.5c0.6-9.8,12.1-43.9,12.1-43.9c7.3-21.8,11-32.7,7.7-38.4c-6-10.4-20.2-3.6-46.1-15.4
		c-19-8.7-23.1-17.7-30.7-15.4c-9.5,2.9-9.9,19.1-15.4,46.1c-9.2,45.7-17.7,46.8-28.7,93.2c0,0-6.5,27.4-17.1,51.6
		c-0.3,0.6-0.5,1-0.6,1.4c-8.2,18.3-7.5,11.4-25.1,45c0,0-19.4,37-32.7,44.7c-5.4,3.1-11.3,5.4-11.3,5.4c-1.4,0.5-2.8,1.1-4.4,1.6
		C77.4,2544.7,64.5,2541.6,63.4,2545.4z"/>
	<path class="st35" d="M659.8,1536c2.2-25,4.3-46.3,5.9-62.2c-9.4,15.8-22.7,39.7-36.6,69.9c-14.8,32-18,45.5-38.4,99.8
		c-13.5,36.1-21.9,56.7-46.1,115.2c-26.1,63.3-22.1,58.5-76.8,199.7c0,0.1-0.1,0.2-0.1,0.3c-23.9,55-116.6,299.5-138.1,337.6
		c-1,1.8-3.3,5.6-7.7,7.7c-10.1,4.7-20.9-5-40.2-16.3c-11.2-6.5-53.8-29.3-73.2-39.8c-4.3-2.4-9.1-5.3-10.2-10.1
		c-1.4-6.5,4.4-12.9,5.3-13.9c14-16.6,106.6-295.9,187.4-634c19.8-83,45.1-195.7,79.9-252.5c5.1-8.3,19.1-30,27.6-62.4
		c10.6-40.4,2.9-60.7,7.7-76.8c8.5-28.4,59.9-56.9,253.4-53.8c14.2,3.1,34.1,9.3,53.8,23c60.1,42.2,69,121,76.8,199.7
		c11.3,115-8.4,207.5-23,276.5c-8,37.8-15.7,63.6-30.7,115.2c-33.4,114.7-46.7,133-92.2,276.5c-28.3,89.5-42.5,134.2-46.1,161.3
		c-4.1,30.4-20.2,59.1-20.3,89.8c0,2.7,0.3,13.4-6.5,18.3c-4.4,3.1-9.6,2.9-11.8,2.8c-23.2-1.2-74.3-4-107.4,4.3
		c-4.5,1.1-11.1,3.4-15.4,0c-7.6-6.1-1.6-25.3,0-30.7c5.1-16.8,29-129,76.8-353.3c0,0,25-126.5,37.3-268.2
		c0.5-5.3,0.8-10.3,1.1-15.9C655.6,1584.4,657,1568.3,659.8,1536z"/>
	<path class="st36" d="M770.3,1930.6c-11.9,23.4-24.6,46.3-38.1,68.7"/>
	<path class="st36" d="M619,1565.4c0.3,3.7-1.9,7.1-3.9,10.2c-10.6,15.6-21.2,31.2-31.8,46.8"/>
	<path class="st36" d="M635,1862.1c1.9-10.2,6.7-19.6,11.5-28.9c5.9-11.4,11.8-22.9,17.7-34.3"/>
	<path class="st36" d="M691.6,2200.2c-4,21-25.5,35.4-29.4,56.5"/>
	<path class="st36" d="M370.1,2203.9c-16.7,13.5-27.7,33.9-46.6,44.1"/>
	<path class="st36" d="M202.9,2215.3c29.9,16.7,59.9,33.4,91.7,47.4c16.7,7.4,35.6,14.2,54.2,10.9"/>
	<path class="st36" d="M533.1,2286.2c37.6,2.1,75.3,2.6,113,1.3c14.1-0.5,28.9-1.4,40.6-8.6"/>
	<path class="st36" d="M663.1,1475.2c3.1-0.3,4.8-3.7,5.9-6.6c13.1-31.9,37.6-58.4,48.1-91.3"/>
	<path class="st36" d="M588.2,1306.4c-24.3,67-48.6,134-72.9,201c-13,35.9-26,71.8-36.2,108.5c-11.3,41.1-19,83-30.3,124.1
		c-15.8,57.6-38.5,113.1-61.2,168.6c-24.1,58.8-48.1,117.6-72.2,176.4c-21.1,51.5-42.2,103.1-65.6,153.7"/>
	<path class="st36" d="M799.8,1266.7c12.3,47.9,22,96.7,24.9,146.2c6.6,113.5-22.6,225.8-54.8,334.8
		c-53,179.7-114.6,357.4-151,541.2"/>
	<path class="st37" d="M623.9,850.1c4.7,0.4,9.9,0.9,13.3,4.2c3.9,3.8,4.2,10,3.9,15.4c-0.3,6.4-1,12.9-3,19
		c-2.5,7.9-6.9,15-11.2,22c-8.8,14.1-18.3,28.9-33.1,36.3c-11.9,5.9-25.8,6.3-39.1,5.6c-8.7-0.4-17.5-1.2-26.2-2.4
		c-12.3-1.7-26-5-32.6-15.6c-4.7-7.5-4.7-16.9-4.8-25.7c-0.2-14.2-0.9-28.7,3.6-42.2c4.4-13.2,16.9-27.8,31.9-28.2
		c9.7-0.2,20.3,2.7,29.9,4c10.4,1.4,20.8,2.7,31.3,3.9C599.8,847.9,611.8,849.1,623.9,850.1z"/>
	<path class="st38" d="M509.4,715.7c-10,6.1-11,16.5-16.7,26.4c-11.5,19.8-27.1,37.2-45.4,50.8c-16.2,12-34.4,21-51.4,31.9
		c-17,10.9-33.1,24.3-42.4,42.2c-11.2,21.5-2.7,44.6,1.3,57.5c9.1,29.1,21.9,33.6,51.7,74c7.5,10.2,32.2,44.6,53.8,92.2
		c11.6,25.6,18.1,45.8,23,61.4c10.6,33.2,15.8,49.9,15.4,69.1c-0.8,32.7-14.2,43.9-7.7,53.8c13.3,20.2,84.5-4.9,115.2-15.4
		c60.1-20.5,144.9-46.2,253.4-69.1c-34.5-24.5-56.3-50.9-69.1-69.1c-18.1-25.8-46.6-66.4-46.1-122.9c0.3-38.5,14-68.4,23-84.5
		c-14.1-14.1-30.7-30.7-30.7-30.7s11.3,11.3,15.4,15.4c41.4,42,51.7,76.4,84.5,115.2c17,20.1,33.5,39.6,61.4,53.8
		c56.7,28.8,116.4,13.3,138.2,7.7c41.9-10.9,71.3-31.1,115.2-61.4c15.2-10.5,27.4-21.1,38.4-30.7c13.1-11.4,14.5-13.7,15.4-15.4
		c7.6-14.5,2.1-30.7-7.7-61.4c-4-12.4-5.7-14.3-7.7-15.4c-13.2-7.3-39.1,18-53.8,30.7c-6.6,5.7-104.1,89.3-168.9,69.1
		c-25.1-7.8-39.7-30.8-69.1-76.8c-22.1-34.7-37.6-71.9-46.1-92.2c-17.3-41.7-22.2-63.5-46.1-84.5c-16.8-14.8-34.6-21.6-38.4-23
		c-18.9-7.1-35.7-7.9-46.1-7.7c-17.5-2.1-32.2-1.7-42.8-0.9c-21.4,1.7-29.3,5.6-34,8.5c-8.3,5.3-12.9,11.8-15.4,15.4
		c-9.1,13.1-8.5,22.7-15.4,53.8c-1.9,8.6-4,18.1-7.7,30.7c-5.1,17.6-8.7,30-15.4,46.1c-5.5,13.3-7.6,16-7.7,23c0,9.5,3.8,15.7,0,23
		c-1.8,3.5-3.4,3.4-7.7,7.7c-11.6,11.7-10,22.4-15.4,23c-6.1,0.8-14.7-12.2-15.4-23c0-0.3,0-0.3,0-7.7c0-10.2,0-15.3,0-15.4
		c-0.1-11.3-5.1-20.9-7.7-30.7c-3.7-13.9,0.6-15.6,0-38.4c-0.2-6.5-2.7-22.2-7.7-53.8c-3.2-19.9-4.7-28.4,0-38.4
		c3.8-8.2,9.3-11.9,7.7-15.4C534.6,709.4,519.8,709.3,509.4,715.7z"/>
	<path class="st32" d="M549.8,925.5c-2.8,39.7-9.1,77.8,2.7,117c5.7,19,11.4,38.1,17.2,57.1c3.5,11.6,7,23.2,11.3,34.6
		c14.9,39.2,40,76,73.4,107.8"/>
	<path class="st30" d="M671.8,782.3c-10.9,6.8-21.9,13.5-32.8,20.3c10.9-17,21.9-34.1,32.8-51.1c2.4-15,4.8-30.1,7.2-45.1
		c-2.6-1.5-6.5-3.2-11.2-3.5c-18-1.3-32.2,18-38.7,26.9c-9.8,13.3-14.5,27.7-19.8,43.4c-1,3-1.7,5.4-3.2,10.3
		c-6.3,21.2-9.9,31.6-15.4,53.8c-5.6,22.7-14.2,55.3-26.9,96c16.6-15.5,35.6-36.2,55.7-63.9C640.9,839.6,658.2,809.3,671.8,782.3z"
		/>
	<path class="st32" d="M565.1,933.1c-2.8,38.5-9.1,75.5,2.7,113.6c5.7,18.5,11.4,36.9,17.2,55.4c3.5,11.3,7,22.5,11.3,33.6
		c14.9,38,40,73.8,73.4,104.6"/>
	<path class="st32" d="M395.2,979.7c23.5,11.7,54.4,13.8,79,5.2"/>
	<path class="st32" d="M596.2,968.4c30.4,8.5,64.6,10.9,92-4.5"/>
	<path class="st32" d="M931.5,967.1c6.7,7.8,11.7,16.1,14.8,24.6"/>
	<path class="st32" d="M832.1,1013.5c1.8-1,3.7,0.7,5.2,2.1c9.1,9.1,21.6,13.7,33.7,18c7.5,2.7,14.9,5.4,22.4,8"/>
	<path class="st32" d="M380,967.9c-11.8-12.5-21.1-27.4-27.1-43.5c-8.4-22.5-9.7-49.8,5.1-68.9c6.5-8.4,15.4-14.4,24.4-20.1
		c21.1-13.5,42.9-26,62.7-41.2c19.9-15.2,38-33.4,49.4-55.7"/>
	<path class="st32" d="M486.8,1264.9c3.8,6.8,10.5,11.9,17.9,14.4c13.9,4.7,29,0.9,43.1-3.2c104.8-30,207.4-70.1,315.5-84.1"/>
	<path class="st30" d="M489.7,776.8c7.6,7.7,15.2,15.4,22.8,23.1c-7.2-15.8-14.4-31.5-21.6-47.3c0-10.2,0-20.5,0-30.7
		c3.7-4.2,11.3-11.6,23-15.4c4.8-1.5,17.3-5.5,23,0c4.4,4.3,1.8,12.5,0,23c-0.7,4.3-0.5,18.2,0,46.1c0.4,25.1,4.2,39.6,7.7,61.4
		c3.4,21.5,7,52.9,6.6,93.2c-10.7-16.5-22.5-38.1-34-66.4C505,833.8,496.1,803.5,489.7,776.8z"/>
	<path class="st4" d="M1226.7,823c-1.2,2.5-2.4,5.4-3.5,8.6c-0.5,1.6-0.9,3.1-1.3,4.5"/>
	<path class="st4" d="M1223.7,832.8c0-8.2,0.6-15,1-19.6c0.3-3.1,1.8-16.5,6.2-34.1c1.1-4.5,2.3-8.6,4.1-16.5
		c3.2-13.6,3.9-19.4,1.7-20.6c-0.3-0.2-0.8-0.3-2.4,0.1c-6.1,1.5-9.8,6.7-11.4,9c-3.5,5-4.8,10.2-5.4,13.8"/>
	<path class="st4" d="M1206.2,828.7c-0.5-3-1.1-7.5-1.1-12.9c0-4.9,0.4-9,1.3-17c0.9-7.6,1.7-11,1.3-17c-0.3-3.9-0.6-10.1-2.6-10.5
		c-2.6-0.5-7.1,9.6-9.2,17c-1.3,4.7-1.8,8.5-2.6,15.7c-1,8.4-1.3,14.8-1.3,15.7c0,0,0,0.1,0,0.1c-0.7,14.9,1.6,34.9,1.6,34.9
		c1,9.4,2.7,21.5,5.6,35.8c1.5,3,3,6,4.5,9c1.5,3,3,6,4.5,9c2.4,4.7,3.1,5.9,4.5,9c0.9,2,1.5,3.7,2.2,5.6c2.9,7.7,2.5,8.1,3.4,9
		c4,3.9,16.7-1.1,25.3-7.7c2.2-1.7,8.5-6.9,13.9-17c6.8-12.6,2.6-15.6,7.7-26.3c6.3-13,16.2-16.3,28-34.3c1.6-2.4,3.9-6.5,2.6-9.9
		c-1.2-3.2-5.2-4.6-8.6-4.1c-1.4,0.2-4.2,0.4-9.2,4.6c-7.8,6.6-6.8,11-12.8,14.3c-0.4,0.2-7.3,4-12.3,1.1c-3-1.7-4.1-5.1-4.7-7.2
		c-5-17.2-7.6-25.8-7.9-31.1c-0.5-9.7,0.3-16.7,1.5-27.9c0.9-7.9,2.9-21.9,0-34.1c-0.5-1.9-1.8-7.7-3.9-7.8c-0.9,0-1.6,1.1-2,1.7
		c-7.3,12.7-8.1,27.8-8.1,27.8c-0.4,7.6-1.2,18.5-3.1,32.5"/>
	<path class="st39" d="M1195.3,886.9c2.9-1.3,6,1.2,7.8,3.5c10.8,13.3,18.8,28.8,20.2,45.1c0.1,1.4,0.2,3-0.6,4.2
		c-0.8,1.3-2.7,2.1-4.1,1.4c-1.1-0.6-1.5-1.8-1.8-2.9c-2.5-9.6-5.8-19-9.7-28.3c-1.8-4.2-3.5-9.2-6.4-13
		C1197.9,893.7,1194.7,891.5,1195.3,886.9z"/>
	<path class="st32" d="M284.8,1037.5c3.6,3.8,7.1,7.7,11.2,11.1c10,8.4,22.3,13.5,34.4,18.5"/>
	<path class="st32" d="M1176.2,891.5c0.8,0.6,2.2,1.7,3.7,3.3c7.7,7.7,8.5,15.4,14.6,49.3c1.1,6.3,2.4,13.4,2.4,23.2
		c0,4.1-0.3,7.5-0.5,10"/>
	<path class="st40" d="M310.6,941.3c2.4,4.2,4.9,8.4,6.7,12.9c0.3,0.7,0.6,1.5,0.6,2.2c0,0.9-0.3,1.8-0.7,2.7
		c-2.6,6.3-7.3,11.8-13.1,15.4c-0.8,0.5-1.6,0.9-2.5,0.9c-0.9-0.1-1.6-0.6-2.3-1.1c-15.6-12-27.1-29.1-32.7-47.9
		c-5.6-18.8-5.5-39.3,0.1-58.2c2.3-7.8,8.8-10.3,11.6-1.8c2.8,8.6,5.6,17.2,8.9,25.7C293.7,909,301.6,925.5,310.6,941.3z"/>
	<path class="st41" d="M301.4,998.1l-146.6-28.9c-3.6-0.7-7.5-5.1-8.7-9.7L83,719.3c-1.3-5.1,0.5-9,4.2-8.8l148.3,9.6
		c4.3,0.3,8.8,5,10.1,10.5l61.3,259.9C308.1,995.6,305.6,998.9,301.4,998.1z"/>
	<path class="st4" d="M145.7,959.7c4.1-7.3,17.2-7.5,34.5-7.7c4.2,0,11.6,0.4,21.7,0c1.5-0.1,6.3-0.3,12-2.3c2.8-1,9.1-3.2,9-5.6
		c-0.1-2.9-9.3-4.6-10.8-4.9c-4.8-0.9-8.8-0.6-16.6,0c-3.3,0.3-3.3,0.3-11.3,1.2c-9.9,1-9.9,0.9-14.2,1.4c-12,1.4-17.4,3-17.6,2.3
		c-0.3-0.9,9.5-4.7,17.6-7.4c13.7-4.7,19.5-5.2,30.7-10.2c12.6-5.7,12.9-8.1,12.8-8.9c-0.4-2.7-7.7-3.7-8.6-3.8
		c-6.7-0.9-11.2,1-32.2,10.2c-7.3,3.2-15,5.1-22.4,7.9c-1.7,0.6-5.1,1.9-5.6,1.1c-0.6-0.9,2.5-3.7,4.5-5.6c2.3-2.2,6.6-6.2,12-8.6
		c0.7-0.3,2.6-1.1,5.2-2.5c1.6-0.8,2.7-1.4,3.2-1.7c1.6-0.9,2.9-1.7,5.7-3.4c11-6.6,11.6-8,11.5-8.9c-0.3-2.5-5.7-3.7-6.4-3.8
		c-5.3-1.1-10.2,0.6-16.6,3.8c-15,7.6-13.3,10.8-24.3,15.3c-4.4,1.8-8.7,2.9-12.3,7.2c-2.7,3.1-3.8,6.5-4.3,8.2
		c-0.5,1.5-2.3,7.9-0.4,14.8c3.3,12,16.2,20.9,20.8,18.4C145,965.1,143.9,962.9,145.7,959.7z"/>
	<path class="st42" d="M315.6,960.9c-3-4.7-5.9-9.4-8.9-14.1c-8-12.6-16.1-25.8-19.5-41.3"/>
	<path class="st42" d="M310.8,968.1c-0.7-0.8-1.3-1.7-1.9-2.5c-5.8-8.7-11.6-17.6-13.9-27.5"/>
	<polygon class="st42" points="189,731.5 136.6,728.7 132.1,713.6 185.6,717 	"/>
	<circle cx="143.3" cy="721.4" r="2.2"/>
	<circle cx="176.9" cy="723.6" r="2.2"/>
	<path class="st4" d="M1219.4,758.3c-4,13.8-7.6,29.4-10.2,46.6c-1.3,8.4-2.2,16.5-2.8,24.1"/>
	<path class="st10" d="M1221.2,830.8c-0.2-2.4,0.2-4.8,0.7-7.2c0.6-3.3,1.1-6.6,1.7-9.9c0.2-1.2,0.4-2.4,0.6-3.6
		c0.3-1.5,0.5-3.1,0.9-4.6"/>
	<g>
		<path class="st43" d="M1140.2,1426.4c1.1-2,0.3-4.5-1.7-5.6l-51.1-27.7c-1-0.5-2.1-0.6-3.1-0.3c-1,0.3-1.9,1-2.4,2l-16.6,30.6
			c-1.9,3.5-5.8,6.2-11.5,7.9c-10.7,3.2-23.7,1.7-23.8,1.7c-0.6-0.1-1.1,0-1.6,0.1c-0.7,0.2-1.3,0.5-1.7,1c-0.9,0.9-1.3,2.1-1.2,3.4
			l12.3,99.1c0.2,1.3,1,2.5,2.1,3.1c1,0.5,2.1,0.6,3.1,0.3c0.2-0.1,0.4-0.1,0.6-0.2l89.8-43.8c1.1-0.6,1.9-1.6,2.2-2.8
			c0.3-1.2-0.1-2.5-0.9-3.5c-5.1-6.1-17-24.2-11.2-34.8L1140.2,1426.4z M1120.9,1453.3l-51.1-27.7l0,0l2.2-4l0,0l51.1,27.7
			L1120.9,1453.3z M1085.5,1396.8C1085.5,1396.8,1085.5,1396.8,1085.5,1396.8l51.1,27.7l-11.5,21.2l-51.1-27.7l0,0L1085.5,1396.8z
			 M1121.4,1477.7c3,6.8,7.2,13.1,10.3,16.7l-86.6,42.3l28.4-52.5c1.9,0.6,3.9,0.6,5.9,0c5.4-1.6,8.5-7.3,6.9-12.8
			s-7.3-8.5-12.8-6.9c-5.4,1.6-8.5,7.3-6.9,12.8c0.6,2,1.8,3.7,3.2,4.9l-28.4,52.5l-11.9-95.6c0.1,0,13.8,1.6,25.5-1.9
			c5.9-1.7,10.2-4.5,12.8-8.1c0,0,0.1,0.1,0.1,0.1l51.1,27.7c0.1,0,0.1,0,0.2,0C1117,1462.4,1117.7,1469.4,1121.4,1477.7z
			 M1070.5,1476.2c-1-3.3,0.9-6.7,4.2-7.7c3.3-1,6.7,0.9,7.7,4.2c1,3.3-0.9,6.7-4.2,7.7C1074.9,1481.3,1071.5,1479.4,1070.5,1476.2z
			"/>
		<polygon class="st44" points="1120.9,1453.3 1069.9,1425.6 1069.9,1425.6 1072.1,1421.5 1072.1,1421.5 1123.1,1449.2 		"/>
		<polygon class="st45" points="1085.5,1396.8 1085.5,1396.8 1136.6,1424.4 1125.1,1445.6 1074,1417.9 1074,1417.9 		"/>
		<path class="st46" d="M1121.4,1477.7c3,6.8,7.2,13.1,10.3,16.7l-86.6,42.3l28.4-52.5c1.9,0.6,3.9,0.6,5.9,0
			c5.4-1.6,8.5-7.3,6.9-12.8s-7.3-8.5-12.8-6.9c-5.4,1.6-8.5,7.3-6.9,12.8c0.6,2,1.8,3.7,3.2,4.9l-28.4,52.5l-11.9-95.6
			c0.1,0,13.8,1.6,25.5-1.9c5.9-1.7,10.2-4.5,12.8-8.1c0,0,0.1,0.1,0.1,0.1l51.1,27.7c0.1,0,0.1,0,0.2,0
			C1117,1462.4,1117.7,1469.4,1121.4,1477.7z"/>
		<circle class="st47" cx="1076.4" cy="1474.4" r="6.2"/>
	</g>
	<g>
		<path class="st43" d="M2293.2,1652.2c1.6-3,0.5-6.8-2.5-8.4l-77.3-41.9c-1.5-0.8-3.2-0.9-4.7-0.5c-1.5,0.5-2.9,1.5-3.7,3
			l-25.1,46.4c-2.9,5.3-8.7,9.3-17.4,11.9c-16.2,4.8-35.9,2.6-36.1,2.6c-0.8-0.1-1.7,0-2.5,0.2c-1,0.3-1.9,0.8-2.6,1.6
			c-1.3,1.4-2,3.3-1.8,5.1l18.7,150.2c0.2,2,1.4,3.7,3.2,4.7c1.5,0.8,3.2,1,4.7,0.5c0.3-0.1,0.6-0.2,1-0.4l136-66.4
			c1.7-0.8,3-2.4,3.4-4.3c0.4-1.9-0.1-3.8-1.3-5.3c-7.7-9.2-25.7-36.7-17-52.7L2293.2,1652.2z M2264.1,1692.9l-77.3-41.9l0,0
			l3.3-6.1l0,0l77.3,41.9L2264.1,1692.9z M2210.4,1607.3C2210.4,1607.3,2210.4,1607.3,2210.4,1607.3l77.3,41.9l-17.4,32.1
			l-77.3-41.9l0,0L2210.4,1607.3z M2264.7,1730c4.5,10.2,11,19.8,15.6,25.3l-131.2,64l43.1-79.5c2.8,0.9,5.9,0.9,8.9,0
			c8.2-2.4,12.9-11.1,10.5-19.3c-2.4-8.2-11.1-12.9-19.3-10.5c-8.2,2.4-12.9,11.1-10.5,19.3c0.9,3,2.7,5.6,4.9,7.5l-43.1,79.5
			l-18-144.9c0.2,0,20.9,2.4,38.6-2.8c8.9-2.6,15.4-6.8,19.4-12.3c0.1,0,0.1,0.1,0.2,0.1l77.3,41.9c0.1,0,0.2,0,0.2,0.1
			C2258.1,1706.8,2259.2,1717.3,2264.7,1730z M2187.7,1727.6c-1.5-4.9,1.4-10.1,6.3-11.6c4.9-1.5,10.1,1.4,11.6,6.3
			s-1.4,10.1-6.3,11.6C2194.4,1735.3,2189.2,1732.5,2187.7,1727.6z"/>
		<polygon class="st44" points="2264.1,1692.9 2186.7,1651 2186.7,1651 2190,1644.8 2190,1644.8 2267.4,1686.7 		"/>
		<polygon class="st45" points="2210.4,1607.3 2210.4,1607.3 2287.7,1649.2 2270.4,1681.3 2193,1639.4 2193,1639.4 		"/>
		<path class="st46" d="M2264.7,1730c4.5,10.2,11,19.8,15.6,25.3l-131.2,64l43.1-79.5c2.8,0.9,5.9,0.9,8.9,0
			c8.2-2.4,12.9-11.1,10.5-19.3c-2.4-8.2-11.1-12.9-19.3-10.5c-8.2,2.4-12.9,11.1-10.5,19.3c0.9,3,2.7,5.6,4.9,7.5l-43.1,79.5
			l-18-144.9c0.2,0,20.9,2.4,38.6-2.8c8.9-2.6,15.4-6.8,19.4-12.3c0.1,0,0.1,0.1,0.2,0.1l77.3,41.9c0.1,0,0.2,0,0.2,0.1
			C2258.1,1706.8,2259.2,1717.3,2264.7,1730z"/>
		<circle class="st47" cx="2196.7" cy="1724.9" r="9.3"/>
	</g>
	<g>
		
			<rect x="938.2" y="1918" transform="matrix(0.7608 -0.649 0.649 0.7608 -1036.1687 1077.3837)" class="st0" width="10.5" height="52.7"/>
		<g>
			<path class="st48" d="M1105.4,1840.9c-13.1-6.8-21.3-16.2-21.5-16.4c-0.2-0.2-8.1-9.7-12.8-23.8L938.4,1914l34.2,40.1
				L1105.4,1840.9z"/>
			<path class="st49" d="M887.3,1992.3c9.5,11.1,26.1,12.4,37.2,3l24.1-20.5l-34.2-40.1l-24.1,20.5
				C879.2,1964.5,877.9,1981.2,887.3,1992.3z"/>
		</g>
		<path class="st50" d="M1097.8,1743.3c23.9-20.4,44.5-21.2,68.4-22.3c14.7-0.6,29.7-1.3,46.4-6.4c-7.7,15.7-10.7,30.5-13.6,44.9
			c-4.8,23.4-8.9,43.7-32.8,64c-39.5,33.7-73-4.3-74.4-5.9C1090.6,1816.1,1058.3,1777.1,1097.8,1743.3z"/>
		<g>
			<path d="M879.3,1999.1c13.2,15.5,36.5,17.4,52.1,4.1l184.9-157.8c15.6,4.9,35.6,4.3,56.9-13.8c26.6-22.7,31.3-45.7,36.2-70
				c3.5-17.2,7.1-35.1,19.4-54c1.3-2,1.1-4.5-0.4-6.3c-1.5-1.8-4-2.3-6.1-1.4c-20.7,9.1-38.8,9.9-56.4,10.6
				c-24.8,1.1-48.2,2.1-74.8,24.8c-21.2,18.1-25,37.7-22.6,54l-185,157.8C867.9,1960.3,866,1983.6,879.3,1999.1z M1097.8,1743.3
				c23.9-20.4,44.5-21.2,68.4-22.3c14.7-0.6,29.7-1.3,46.4-6.4c-7.7,15.7-10.7,30.5-13.6,44.9c-4.8,23.4-8.9,43.7-32.8,64
				c-39.5,33.7-73-4.3-74.4-5.9C1090.6,1816.1,1058.3,1777.1,1097.8,1743.3z M1071.1,1800.8c4.7,14,12.6,23.6,12.8,23.8
				c0.2,0.2,8.3,9.5,21.5,16.4l-132.7,113.2l-34.2-40.1L1071.1,1800.8z M930.4,1920.9l34.2,40.1l-8,6.8l-34.2-40.1L930.4,1920.9z
				 M914.3,1934.6l34.2,40.1l-24.1,20.5c-11.1,9.5-27.7,8.1-37.2-3c-9.5-11.1-8.1-27.7,2.9-37.2L914.3,1934.6z"/>
			<path d="M1107.4,1811.4c2.2-1.9,2.5-5.2,0.6-7.4c-11.3-13.3-9.8-33.3,3.5-44.6c2.2-1.9,2.5-5.2,0.6-7.4c-1.9-2.2-5.2-2.5-7.4-0.6
				c-17.7,15.1-19.8,41.8-4.7,59.5C1101.9,1813.1,1105.2,1813.3,1107.4,1811.4z"/>
		</g>
	</g>
	<g>
		
			<rect x="3247.2" y="2408" transform="matrix(0.1905 -0.9817 0.9817 0.1905 243.0332 5163.5518)" class="st0" width="10.5" height="52.7"/>
		<g>
			<path class="st48" d="M3314.6,2252.6c-14.5,2.8-26.7,0.6-27,0.6c-0.3-0.1-12.4-2.6-24.8-10.6l-33.2,171.3l51.8,10L3314.6,2252.6z
				"/>
			<path class="st49" d="M3238.4,2506.9c14.3,2.8,28.1-6.6,30.9-20.9l6-31.1l-51.8-10l-6,31.1
				C3214.8,2490.3,3224.1,2504.1,3238.4,2506.9z"/>
		</g>
		<path class="st50" d="M3247.9,2181c6-30.8,21.6-44.3,39.6-60c11.1-9.6,22.4-19.5,32.3-33.9c3.8,17.1,10.6,30.5,17.3,43.6
			c10.9,21.3,20.3,39.7,14.3,70.5c-9.9,51-59.7,42.1-61.8,41.7C3287.5,2242.4,3238,2232,3247.9,2181z"/>
		<g>
			<path d="M3236.4,2517.3c20,3.9,39.4-9.2,43.3-29.2l46.3-238.7c15.3-5.9,30.5-18.8,35.8-46.3c6.7-34.4-4-55.2-15.3-77.3
				c-8-15.7-16.3-31.9-18.5-54.4c-0.2-2.3-2-4.2-4.3-4.6c-2.3-0.4-4.6,0.7-5.7,2.7c-10.5,20-24.2,31.9-37.5,43.5
				c-18.7,16.3-36.4,31.6-43.1,66c-5.3,27.4,4,45.1,15.9,56.3l-46.3,238.7C3203.3,2494,3216.4,2513.4,3236.4,2517.3z M3247.9,2181
				c6-30.8,21.6-44.3,39.6-60c11.1-9.6,22.4-19.5,32.3-33.9c3.8,17.1,10.6,30.5,17.3,43.6c10.9,21.3,20.3,39.7,14.3,70.5
				c-9.9,51-59.7,42.1-61.8,41.7C3287.5,2242.4,3238,2232,3247.9,2181z M3262.8,2242.6c12.4,8.1,24.5,10.6,24.8,10.6
				c0.3,0,12.4,2.3,27-0.6l-33.2,171.3l-51.8-10L3262.8,2242.6z M3227.6,2424.2l51.8,10l-2,10.4l-51.8-10L3227.6,2424.2z
				 M3223.6,2444.9l51.8,10l-6,31.1c-2.8,14.3-16.6,23.6-30.9,20.9c-14.3-2.8-23.6-16.6-20.9-30.9L3223.6,2444.9z"/>
			<path d="M3297.8,2228.3c0.6-2.9-1.3-5.6-4.2-6.2c-17.2-3.3-28.4-19.9-25-37.1c0.6-2.9-1.3-5.6-4.2-6.2c-2.9-0.6-5.6,1.3-6.2,4.2
				c-4.4,22.9,10.5,45,33.4,49.5C3294.5,2233.1,3297.3,2231.2,3297.8,2228.3z"/>
		</g>
	</g>
	<g>
		<path class="st45" d="M165.6,1528.6l149.8-304.8l-29.9-14.7L135.8,1514l0,0c-4,8.2-0.6,18.2,7.6,22.3
			C151.6,1540.3,161.6,1536.9,165.6,1528.6L165.6,1528.6z"/>
		<path class="st46" d="M131.6,1549.4l7.5-15.2l8.5,4.2l-7.5,15.2l0,0c-1.2,2.4-3.9,3.4-6.4,2.2
			C131.3,1554.5,130.4,1551.8,131.6,1549.4L131.6,1549.4z"/>
		<path class="st45" d="M321.8,1211.3l1-2.1c2.2-4.6,0.2-10.5-4.3-12.7l-12.8-6.3c-4.6-2.2-10.5-0.2-12.7,4.3l-1,2.1L321.8,1211.3z"
			/>
		<g>
			
				<rect x="296.7" y="1191.2" transform="matrix(0.4413 -0.8974 0.8974 0.4413 -916.3734 948.8077)" class="st51" width="14.2" height="38.2"/>
			<path class="st51" d="M318.2,1196.2l4.2-8.5c1.2-2.4,0.3-5.2-2.2-6.4l-4-1.9c-2.4-1.2-5.2-0.3-6.4,2.2l-4.2,8.5L318.2,1196.2z"/>
		</g>
		<path d="M136.5,1516.2c-0.7,0.2-1.2,0.2-1.8-0.1c-1.2-0.6-1.7-2-1.1-3.2l149.8-304.8c0.6-1.2,2-1.7,3.2-1.1c1.2,0.6,1.7,2,1.1,3.2
			L137.9,1515C137.6,1515.6,137,1516.1,136.5,1516.2z"/>
		<path d="M132.4,1551.6c-0.7,0.2-1.2,0.2-1.8-0.1c-1.2-0.6-1.7-2-1.1-3.2l7.5-15.2c0.6-1.2,2-1.7,3.2-1.1c1.2,0.6,1.7,2,1.1,3.2
			l-7.5,15.2C133.4,1551,133,1551.4,132.4,1551.6z"/>
		<path d="M140.9,1555.8c-0.7,0.2-1.2,0.2-1.8-0.1c-1.2-0.6-1.7-2-1.1-3.2l7.5-15.2c0.6-1.2,2-1.7,3.2-1.1c1.2,0.6,1.7,2,1.1,3.2
			l-7.5,15.2C142,1555.2,141.6,1555.6,140.9,1555.8z"/>
		<path d="M166.4,1530.9c-0.7,0.2-1.2,0.2-1.8-0.1c-1.2-0.6-1.7-2-1.1-3.2l149.8-304.8c0.6-1.2,2-1.7,3.2-1.1c1.2,0.6,1.7,2,1.1,3.2
			l-149.8,304.8C167.5,1530.3,167.1,1530.7,166.4,1530.9z"/>
		<path d="M322.6,1213.5c-0.7,0.2-1.2,0.2-1.8-0.1c-1.2-0.6-1.7-2-1.1-3.2l1-2.1c0.9-1.8,1-3.7,0.4-5.5c-0.6-1.8-1.8-3.2-3.7-4.1
			l-12.8-6.3c-3.7-1.8-7.7-0.4-9.5,3.3l-1,2.1c-0.6,1.2-2,1.7-3.2,1.1c-1.2-0.6-1.7-2-1.1-3.2l1-2.1c2.8-5.8,10.1-8.3,15.9-5.4
			l12.8,6.3c2.7,1.3,5.1,3.8,6.1,6.8c1,3,0.9,6.3-0.7,9.1l-1,2.1C323.7,1212.9,323,1213.4,322.6,1213.5z"/>
		<path d="M322.6,1213.5c-0.7,0.2-1.2,0.2-1.8-0.1l-29.9-14.7c-1.2-0.6-1.7-2-1.1-3.2c0.6-1.2,2-1.7,3.2-1.1l29.9,14.7
			c1.2,0.6,1.7,2,1.1,3.2C323.7,1212.9,323,1213.4,322.6,1213.5z"/>
		<path d="M156.9,1539.5c-4.5,1.5-9.9,1.4-14.5-0.9c-9.4-4.6-13.3-16-8.7-25.5c0.6-1.2,2-1.7,3.2-1.1c1.2,0.6,1.7,2,1.1,3.2
			c-3.4,7-0.5,15.6,6.5,19.1c7,3.4,15.6,0.5,19.1-6.5c0.6-1.2,2-1.7,3.2-1.1c1.2,0.6,1.7,2,1.1,3.2
			C165.6,1534.5,161.4,1537.9,156.9,1539.5z"/>
		<path d="M138.2,1558.3L138.2,1558.3c-1.8,0.6-3.6,0.5-5.5-0.4s-3.1-2.3-3.7-4.1c-0.6-1.8-0.5-3.6,0.4-5.5c0.6-1.2,2-1.7,3.2-1.1
			c1.2,0.6,1.7,2,1.1,3.2c-0.3,0.6-0.4,1.1-0.1,1.8c0.2,0.7,0.6,1.1,1.2,1.4c0.6,0.3,1.1,0.4,1.8,0.1l0,0c0.7-0.2,1.1-0.6,1.4-1.2
			c0.6-1.2,2-1.7,3.2-1.1c1.2,0.6,1.7,2,1.1,3.2C141.4,1556.4,140,1557.7,138.2,1558.3z"/>
		<path d="M162.9,1511c-0.7,0.2-1.2,0.2-1.8-0.1l-19.2-9.4c-1.2-0.6-1.7-2-1.1-3.2s2-1.7,3.2-1.1l19.2,9.4c1.2,0.6,1.7,2,1.1,3.2
			C164.2,1510.3,163.6,1510.8,162.9,1511z"/>
		<path d="M318.4,1227.4c-0.7,0.2-1.2,0.2-1.8-0.1l-34.4-16.9c-1.2-0.6-1.7-2-1.1-3.2l6.3-12.8c0.6-1.2,2-1.7,3.2-1.1l34.4,16.9
			c0.6,0.3,1,0.7,1.2,1.4c0.2,0.7,0.2,1.2-0.1,1.8l-6.3,12.8C319.5,1226.8,319.1,1227.2,318.4,1227.4z M286.6,1207l29.9,14.7
			l4.2-8.5l-29.9-14.7L286.6,1207z"/>
		<path d="M319,1198.5c-0.7,0.2-1.2,0.2-1.8-0.1c-1.2-0.6-1.7-2-1.1-3.2l4.2-8.5c0.3-0.6,0.4-1.1,0.1-1.8c-0.2-0.7-0.6-1.1-1.2-1.4
			l-4-1.9c-1.2-0.6-2.6-0.1-3.2,1.1l-4.2,8.5c-0.6,1.2-2,1.7-3.2,1.1c-1.2-0.6-1.7-2-1.1-3.2l4.2-8.5c1.8-3.7,6.1-5.1,9.5-3.3l4,1.9
			c1.8,0.9,3.1,2.3,3.7,4.1c0.6,1.8,0.5,3.6-0.4,5.5l-4.2,8.5C320.1,1197.9,319.7,1198.3,319,1198.5z"/>
		<path d="M277.7,1337.2c-0.7,0.2-1.2,0.2-1.8-0.1c-1.2-0.6-1.7-2-1.1-3.2l53.5-108.8l-7.9-3.9c-1.2-0.6-1.7-2-1.1-3.2
			c0.6-1.2,2-1.7,3.2-1.1l10.1,4.9c1.2,0.6,1.7,2,1.1,3.2L279.1,1336C278.8,1336.6,278.4,1336.9,277.7,1337.2z"/>
	</g>
	<g>
		<path class="st45" d="M4060.7,2174.9l85.2-234.5l-23-8.3l-85.2,234.5l0,0c-2.3,6.3,1,13.4,7.3,15.7
			C4051.4,2184.5,4058.4,2181.2,4060.7,2174.9L4060.7,2174.9z"/>
		<path class="st46" d="M4037.5,2192.8l4.3-11.7l6.6,2.4l-4.3,11.7l0,0c-0.7,1.9-2.6,2.8-4.5,2.1
			C4037.7,2196.5,4036.8,2194.6,4037.5,2192.8L4037.5,2192.8z"/>
		<path class="st45" d="M4149.5,1930.7l0.6-1.6c1.3-3.5-0.7-7.7-4.2-9l-9.8-3.6c-3.5-1.3-7.7,0.7-9,4.2l-0.6,1.6L4149.5,1930.7z"/>
		<g>
			
				<rect x="4131.1" y="1917.4" transform="matrix(0.3415 -0.9399 0.9399 0.3415 908.3422 5159.3584)" class="st51" width="10.4" height="28.1"/>
			<path class="st51" d="M4145.7,1920l2.4-6.6c0.7-1.9-0.2-3.8-2.1-4.5l-3-1.1c-1.9-0.7-3.8,0.2-4.5,2.1l-2.4,6.6L4145.7,1920z"/>
		</g>
		<path d="M4038.5,2168.2c-0.5,0.2-0.9,0.2-1.3,0c-0.9-0.3-1.4-1.3-1-2.2l85.2-234.5c0.3-0.9,1.3-1.4,2.2-1s1.4,1.3,1,2.2
			l-85.2,234.5C4039.2,2167.6,4038.8,2168,4038.5,2168.2z"/>
		<path d="M4038.2,2194.4c-0.5,0.2-0.9,0.2-1.3,0c-0.9-0.3-1.4-1.3-1-2.2l4.3-11.7c0.3-0.9,1.3-1.4,2.2-1c0.9,0.3,1.4,1.3,1,2.2
			l-4.3,11.7C4039,2193.8,4038.7,2194.1,4038.2,2194.4z"/>
		<path d="M4044.8,2196.7c-0.5,0.2-0.9,0.2-1.3,0c-0.9-0.3-1.4-1.3-1-2.2l4.3-11.7c0.3-0.9,1.3-1.4,2.2-1c0.9,0.3,1.4,1.3,1,2.2
			l-4.3,11.7C4045.5,2196.2,4045.3,2196.5,4044.8,2196.7z"/>
		<path d="M4061.5,2176.5c-0.5,0.2-0.9,0.2-1.3,0c-0.9-0.3-1.4-1.3-1-2.2l85.2-234.5c0.3-0.9,1.3-1.4,2.2-1s1.4,1.3,1,2.2
			l-85.2,234.5C4062.2,2176,4061.9,2176.3,4061.5,2176.5z"/>
		<path d="M4150.3,1932.3c-0.5,0.2-0.9,0.2-1.3,0c-0.9-0.3-1.4-1.3-1-2.2l0.6-1.6c0.5-1.4,0.5-2.8-0.1-4c-0.6-1.3-1.6-2.2-3-2.7
			l-9.8-3.6c-2.8-1-5.7,0.3-6.7,3.1l-0.6,1.6c-0.3,0.9-1.3,1.4-2.2,1c-0.9-0.3-1.4-1.3-1-2.2l0.6-1.6c1.6-4.5,6.7-6.8,11.2-5.2
			l9.8,3.6c2.1,0.8,4,2.4,5,4.5s1.1,4.5,0.2,6.7l-0.6,1.6C4151,1931.8,4150.6,1932.1,4150.3,1932.3z"/>
		<path d="M4150.3,1932.3c-0.5,0.2-0.9,0.2-1.3,0l-23-8.3c-0.9-0.3-1.4-1.3-1-2.2c0.3-0.9,1.3-1.4,2.2-1l23,8.3
			c0.9,0.3,1.4,1.3,1,2.2C4151,1931.8,4150.6,1932.1,4150.3,1932.3z"/>
		<path d="M4055.2,2183.5c-3.2,1.5-7.2,1.8-10.7,0.5c-7.3-2.6-11-10.6-8.4-17.9c0.3-0.9,1.3-1.4,2.2-1c0.9,0.3,1.4,1.3,1,2.2
			c-2,5.4,0.9,11.5,6.3,13.4c5.4,2,11.5-0.9,13.4-6.3c0.3-0.9,1.3-1.4,2.2-1c0.9,0.3,1.4,1.3,1,2.2
			C4061.1,2179.2,4058.4,2182,4055.2,2183.5z"/>
		<path d="M4043,2198.7L4043,2198.7c-1.3,0.6-2.6,0.6-4,0.1c-1.4-0.5-2.4-1.4-3-2.7c-0.6-1.3-0.6-2.6-0.1-4c0.3-0.9,1.3-1.4,2.2-1
			c0.9,0.3,1.4,1.3,1,2.2c-0.2,0.5-0.2,0.9,0,1.3c0.2,0.5,0.5,0.7,1,0.9c0.5,0.2,0.9,0.2,1.3,0l0,0c0.5-0.2,0.7-0.5,0.9-1
			c0.3-0.9,1.3-1.4,2.2-1c0.9,0.3,1.4,1.3,1,2.2C4045.2,2197.1,4044.3,2198.1,4043,2198.7z"/>
		<path d="M4057.3,2162.3c-0.5,0.2-0.9,0.2-1.3,0l-14.8-5.4c-0.9-0.3-1.4-1.3-1-2.2c0.3-0.9,1.3-1.4,2.2-1l14.8,5.4
			c0.9,0.3,1.4,1.3,1,2.2C4058.2,2161.7,4057.8,2162,4057.3,2162.3z"/>
		<path d="M4148.4,1942.7c-0.5,0.2-0.9,0.2-1.3,0l-26.5-9.6c-0.9-0.3-1.4-1.3-1-2.2l3.6-9.8c0.3-0.9,1.3-1.4,2.2-1l26.5,9.6
			c0.5,0.2,0.8,0.4,1,0.9c0.2,0.5,0.2,0.9,0,1.3l-3.6,9.8C4149.1,1942.2,4148.8,1942.5,4148.4,1942.7z M4123.5,1930.4l23,8.3
			l2.4-6.6l-23-8.3L4123.5,1930.4z"/>
		<path d="M4146.5,1921.6c-0.5,0.2-0.9,0.2-1.3,0c-0.9-0.3-1.4-1.3-1-2.2l2.4-6.6c0.2-0.5,0.2-0.9,0-1.3c-0.2-0.5-0.5-0.7-1-0.9
			l-3-1.1c-0.9-0.3-1.9,0.1-2.2,1l-2.4,6.6c-0.3,0.9-1.3,1.4-2.2,1s-1.4-1.3-1-2.2l2.4-6.6c1-2.8,4.1-4.2,6.7-3.1l3,1.1
			c1.4,0.5,2.4,1.4,3,2.7s0.6,2.6,0.1,4l-2.4,6.6C4147.2,1921.1,4146.9,1921.4,4146.5,1921.6z"/>
		<path d="M4127.3,2026.2c-0.5,0.2-0.9,0.2-1.3,0c-0.9-0.3-1.4-1.3-1-2.2l30.4-83.7l-6.1-2.2c-0.9-0.3-1.4-1.3-1-2.2
			c0.3-0.9,1.3-1.4,2.2-1l7.7,2.8c0.9,0.3,1.4,1.3,1,2.2l-31,85.4C4128.1,2025.6,4127.8,2025.9,4127.3,2026.2z"/>
	</g>
	<g>
		<path class="st52" d="M2135.1,641.4c-6.3,15.7-0.4,33,15.1,39.2l13.1,5.2l179,71.6c15.7,6.3,33.2-1.6,39.5-17.4l107.3-268.4
			c6.3-15.7-1-33.3-16.7-39.6l-179-71.6l-13.1-5.2c-15.7-6.3-31.6,2.3-37.8,17.7L2135.1,641.4z"/>
		<path class="st53" d="M2163,685.7l-12.9-5.1c-15.7-6.3-21.4-23.5-15.1-39.2l107.3-268.4c6.3-15.7,22.4-23.9,37.8-17.7l12.9,5.1
			L2163,685.7z"/>
		<path d="M2341.4,761.6l-192.3-76.9c-17.1-6.8-25.7-26.4-18.7-43.7l107.2-268.2c6.8-17.1,26.4-25.7,43.7-18.7l192.3,76.9
			c17.1,6.8,25.7,26.4,18.7,43.7l-107.3,268.4C2378.2,760.2,2358.8,768.6,2341.4,761.6z M2279.5,359.5c-14.2-5.7-30.6,1.2-36.4,15.6
			l-107.3,268.4c-5.7,14.2,1.2,30.6,15.6,36.4l192.3,76.9c14.2,5.7,30.6-1.2,36.4-15.6l2.6,1l-2.6-1l107.3-268.4
			c5.7-14.2-1.2-30.6-15.6-36.4L2279.5,359.5L2279.5,359.5z"/>
		<path d="M2161.7,685.2c-1.6-0.6-2.2-2.1-1.6-3.7l107-267.6c0.6-1.6,2.1-2.2,3.7-1.6c1.6,0.6,2.2,2.1,1.6,3.7l-107,267.6
			C2164.7,685.2,2163.3,685.8,2161.7,685.2z"/>
		<path d="M2281.3,386.1c-1.6-0.6-2.2-2.1-1.6-3.7l8.4-21c0.6-1.6,2.1-2.2,3.7-1.6c1.6,0.6,2.2,2.1,1.6,3.7l-8.4,21
			C2284.4,386.1,2282.9,386.7,2281.3,386.1z"/>
		<path d="M2150.4,633.5l-26.2-10.5c-1.6-0.6-2.2-2.1-1.6-3.7s2.1-2.2,3.7-1.6l26.2,10.5c1.6,0.6,2.2,2.1,1.6,3.7
			S2152,634.1,2150.4,633.5z"/>
		<path d="M2166.2,594.1l-26.2-10.5c-1.6-0.6-2.2-2.1-1.6-3.7c0.6-1.6,2.1-2.2,3.7-1.6l26.2,10.5c1.6,0.6,2.2,2.1,1.6,3.7
			C2169.2,594.1,2167.7,594.8,2166.2,594.1z"/>
		<path d="M2181.9,554.8l-26.2-10.5c-1.6-0.6-2.2-2.1-1.6-3.7c0.6-1.6,2.1-2.2,3.7-1.6l26.2,10.5c1.6,0.6,2.2,2.1,1.6,3.7
			C2184.9,554.8,2183.5,555.4,2181.9,554.8z"/>
		<path d="M2197.6,515.4l-26.2-10.5c-1.6-0.6-2.2-2.1-1.6-3.7c0.6-1.6,2.1-2.2,3.7-1.6l26.2,10.5c1.6,0.6,2.2,2.1,1.6,3.7
			S2199.2,516.1,2197.6,515.4z"/>
		<path d="M2213.4,476.1l-26.2-10.5c-1.6-0.6-2.2-2.1-1.6-3.7s2.1-2.2,3.7-1.6l26.2,10.5c1.6,0.6,2.2,2.1,1.6,3.7
			C2216.4,476.1,2215,476.7,2213.4,476.1z"/>
		<path d="M2229.1,436.7l-26.2-10.5c-1.6-0.6-2.2-2.1-1.6-3.7c0.6-1.6,2.1-2.2,3.7-1.6l26.2,10.5c1.6,0.6,2.2,2.1,1.6,3.7
			C2232.2,436.7,2230.7,437.3,2229.1,436.7z"/>
		<path d="M2244.9,397.3l-26.2-10.5c-1.6-0.6-2.2-2.1-1.6-3.7c0.6-1.6,2.1-2.2,3.7-1.6l26.2,10.5c1.6,0.6,2.2,2.1,1.6,3.7
			S2246.4,398,2244.9,397.3z"/>
		<path d="M2444.3,507.5L2300,449.8c-1.6-0.6-2.2-2.1-1.6-3.7c0.6-1.6,2.1-2.2,3.7-1.6l144.3,57.7c1.6,0.6,2.2,2.1,1.6,3.7
			S2445.9,508.2,2444.3,507.5z"/>
		<path d="M2321,488.7l-31.5-12.6c-1.6-0.6-2.2-2.1-1.6-3.7c0.6-1.6,2.1-2.2,3.7-1.6l31.5,12.6c1.6,0.6,2.2,2.1,1.6,3.7
			C2324,488.7,2322.5,489.3,2321,488.7z"/>
		<path d="M2433.8,533.8l-89.2-35.7c-1.6-0.6-2.2-2.1-1.6-3.7c0.6-1.6,2.1-2.2,3.7-1.6l89.2,35.7c1.6,0.6,2.2,2.1,1.6,3.7
			C2436.8,533.8,2435.4,534.4,2433.8,533.8z"/>
		<path d="M2423.3,560l-42-16.8c-1.6-0.6-2.2-2.1-1.6-3.7s2.1-2.2,3.7-1.6l42,16.8c1.6,0.6,2.2,2.1,1.6,3.7
			C2426.3,560,2424.9,560.6,2423.3,560z"/>
		<path d="M2357.7,533.8l-78.7-31.5c-1.6-0.6-2.2-2.1-1.6-3.7c0.6-1.6,2.1-2.2,3.7-1.6l78.7,31.5c1.6,0.6,2.2,2.1,1.6,3.7
			C2360.7,533.8,2359.3,534.4,2357.7,533.8z"/>
		<path d="M2412.8,586.3l-144.3-57.7c-1.6-0.6-2.2-2.1-1.6-3.7c0.6-1.6,2.1-2.2,3.7-1.6l144.3,57.7c1.6,0.6,2.2,2.1,1.6,3.7
			S2414.4,586.9,2412.8,586.3z"/>
		<path d="M2381.3,665L2237,607.3c-1.6-0.6-2.2-2.1-1.6-3.7c0.6-1.6,2.1-2.2,3.7-1.6l144.3,57.7c1.6,0.6,2.2,2.1,1.6,3.7
			C2384.4,665,2382.9,665.6,2381.3,665z"/>
		<path d="M2289.5,567.4l-31.5-12.6c-1.6-0.6-2.2-2.1-1.6-3.7s2.1-2.2,3.7-1.6l31.5,12.6c1.6,0.6,2.2,2.1,1.6,3.7
			S2291.1,568,2289.5,567.4z"/>
		<path d="M2402.3,612.5l-89.2-35.7c-1.6-0.6-2.2-2.1-1.6-3.7c0.6-1.6,2.1-2.2,3.7-1.6l89.2,35.7c1.6,0.6,2.2,2.1,1.6,3.7
			S2403.9,613.1,2402.3,612.5z"/>
		<path d="M2391.8,638.7l-42-16.8c-1.6-0.6-2.2-2.1-1.6-3.7s2.1-2.2,3.7-1.6l42,16.8c1.6,0.6,2.2,2.1,1.6,3.7
			S2393.4,639.4,2391.8,638.7z"/>
		<path d="M2326.2,612.5l-78.7-31.5c-1.6-0.6-2.2-2.1-1.6-3.7c0.6-1.6,2.1-2.2,3.7-1.6l78.7,31.5c1.6,0.6,2.2,2.1,1.6,3.7
			S2327.8,613.1,2326.2,612.5z"/>
		<path d="M2258,646.1l-31.5-12.6c-1.6-0.6-2.2-2.1-1.6-3.7c0.6-1.6,2.1-2.2,3.7-1.6l31.5,12.6c1.6,0.6,2.2,2.1,1.6,3.7
			C2261,646.1,2259.6,646.7,2258,646.1z"/>
		<path d="M2370.8,691.2l-89.2-35.7c-1.6-0.6-2.2-2.1-1.6-3.7c0.6-1.6,2.1-2.2,3.7-1.6l89.2,35.7c1.6,0.6,2.2,2.1,1.6,3.7
			C2373.9,691.2,2372.4,691.8,2370.8,691.2z"/>
	</g>
</g>
</svg>
