<?xml version="1.0" encoding="UTF-8" standalone="no" ?>
<!DOCTYPE svg PUBLIC "-//W3C//DTD SVG 1.1//EN" "http://www.w3.org/Graphics/SVG/1.1/DTD/svg11.dtd">
<svg xmlns="http://www.w3.org/2000/svg" xmlns:xlink="http://www.w3.org/1999/xlink" version="1.1" width="400" height="400" viewBox="0 0 400 400" xml:space="preserve">
<desc>Created with Fabric.js 3.6.2</desc>
<defs>
</defs>
<g transform="matrix(7.15 0 0 7.15 200 200)" id="Telegram"  >
<path style="stroke: none; stroke-width: 1; stroke-dasharray: none; stroke-linecap: butt; stroke-dashoffset: 0; stroke-linejoin: miter; stroke-miterlimit: 4; fill: rgb(0,0,0); fill-rule: nonzero; opacity: 1;"  transform=" translate(-16.01, -15.93)" d="M 26.49 29.86 H 5.5 a 3.37 3.37 0 0 1 -2.47 -1 a 3.35 3.35 0 0 1 -1 -2.47 V 5.48 A 3.36 3.36 0 0 1 3 3 A 3.37 3.37 0 0 1 5.5 2 h 21 A 3.38 3.38 0 0 1 29 3 a 3.36 3.36 0 0 1 1 2.46 V 26.37 a 3.35 3.35 0 0 1 -1 2.47 A 3.38 3.38 0 0 1 26.49 29.86 Z m -5.38 -6.71 a 0.79 0.79 0 0 0 0.85 -0.66 L 24.73 9.24 a 0.55 0.55 0 0 0 -0.18 -0.46 a 0.62 0.62 0 0 0 -0.41 -0.17 q -0.08 0 -16.53 6.11 a 0.59 0.59 0 0 0 -0.41 0.59 a 0.57 0.57 0 0 0 0.43 0.52 l 4 1.24 l 1.61 4.83 a 0.62 0.62 0 0 0 0.63 0.43 a 0.56 0.56 0 0 0 0.4 -0.17 L 16.54 20 l 4.09 3 A 0.9 0.9 0 0 0 21.11 23.15 Z M 13.8 20.71 l -1.21 -4 q 8.72 -5.55 8.78 -5.55 c 0.15 0 0.23 0 0.23 0.16 a 0.18 0.18 0 0 1 0 0.06 s -2.51 2.3 -7.52 6.8 Z" stroke-linecap="round" />
</g>
</svg>