<?xml version="1.0" encoding="UTF-8" standalone="no" ?>
<!DOCTYPE svg PUBLIC "-//W3C//DTD SVG 1.1//EN" "http://www.w3.org/Graphics/SVG/1.1/DTD/svg11.dtd">
<svg xmlns="http://www.w3.org/2000/svg" xmlns:xlink="http://www.w3.org/1999/xlink" version="1.1" width="400" height="400" viewBox="0 0 400 400" xml:space="preserve">
<desc>Created with Fabric.js 3.6.2</desc>
<defs>
</defs>
<g transform="matrix(3.57 0 0 3.57 200 200)" id="Layer_2"  >
<path style="stroke: none; stroke-width: 1; stroke-dasharray: none; stroke-linecap: butt; stroke-dashoffset: 0; stroke-linejoin: miter; stroke-miterlimit: 4; fill: rgb(0,0,0); fill-rule: nonzero; opacity: 1;"  transform=" translate(-32.1, -35.11)" d="M 53.9 41.6 c -4.7 -4.6 -4.1 -3.9 1.6 -11.8 c 3.4 -4.8 4.8 -7.8 4.4 -9.1 c -0.2 -0.8 -2.9 -0.6 -2.9 -0.6 h -8.4 c 0 0 -1.3 0 -1.8 0.9 c -0.9 1.7 -1.3 3.8 -3.1 6.9 c -3.8 6.7 -5.3 7.1 -5.9 6.7 c -1.4 -1 -1.1 -3.9 -1.1 -6 c 0 -6.5 0.9 -9.2 -1.8 -10 c -0.6 -0.2 -1.1 -0.2 -2 -0.3 c -1.1 -0.1 -2.2 -0.1 -3.2 -0.1 c -2.5 0 -4.4 0.1 -5.7 0.7 c -1 0.5 -1.7 1.6 -1.2 1.7 c 0.6 0.1 1.8 0.4 2.5 1.3 c 0.9 1.2 0.8 4 0.8 4 s 0.5 7.7 -1.2 8.6 c -1.1 0.7 -2.7 -0.7 -6 -6.8 c -1.7 -3.1 -1.9 -5.2 -3 -6.6 c -0.7 -0.9 -2 -1.2 -2 -1.2 h -8 c 0 0 -1.4 -0.1 -1.6 0.3 c -0.4 0.5 0 1.5 0 1.5 s 6.3 15.5 13.4 23.3 C 24 52.4 31.4 52 31.4 52 s 4.3 0.2 4.9 -0.9 c 0.4 -0.4 0.5 -1.6 0.5 -1.6 s -0.1 -4.8 2 -5.5 c 2.1 -0.7 4.7 4.6 7.5 6.6 C 48.4 52.2 49 52 50 52 c 2 0 7.5 0 7.5 0 s 3.9 -0.4 2.1 -3.7 C 59.3 48.1 58.4 46 53.9 41.6 z" stroke-linecap="round" />
</g>
</svg>